<?xml version="1.0" encoding="utf-8" standalone="no"?>
<!DOCTYPE svg PUBLIC "-//W3C//DTD SVG 1.1//EN"
  "http://www.w3.org/Graphics/SVG/1.1/DTD/svg11.dtd">
<!-- Created with matplotlib (https://matplotlib.org/) -->
<svg height="432pt" version="1.1" viewBox="0 0 1152 432" width="1152pt" xmlns="http://www.w3.org/2000/svg" xmlns:xlink="http://www.w3.org/1999/xlink">
 <defs>
  <style type="text/css">
*{stroke-linecap:butt;stroke-linejoin:round;white-space:pre;}
  </style>
 </defs>
 <g id="figure_1">
  <g id="patch_1">
   <path d="M 0 432 
L 1152 432 
L 1152 0 
L 0 0 
z
" style="fill:#ffffff;"/>
  </g>
  <g id="axes_1">
   <g id="patch_2">
    <path d="M 144 378 
L 1036.8 378 
L 1036.8 51.84 
L 144 51.84 
z
" style="fill:#e5e5e5;"/>
   </g>
   <g id="matplotlib.axis_1">
    <g id="xtick_1">
     <g id="line2d_1">
      <path clip-path="url(#pb64280a684)" d="M 144 378 
L 144 51.84 
" style="fill:none;stroke:#ffffff;stroke-linecap:square;stroke-width:0.8;"/>
     </g>
     <g id="line2d_2">
      <defs>
       <path d="M 0 0 
L 0 3.5 
" id="m328c425a8b" style="stroke:#555555;stroke-width:0.8;"/>
      </defs>
      <g>
       <use style="fill:#555555;stroke:#555555;stroke-width:0.8;" x="144" xlink:href="#m328c425a8b" y="378"/>
      </g>
     </g>
     <g id="text_1">
      <!-- 0 -->
      <defs>
       <path d="M 31.78125 66.40625 
Q 24.171875 66.40625 20.328125 58.90625 
Q 16.5 51.421875 16.5 36.375 
Q 16.5 21.390625 20.328125 13.890625 
Q 24.171875 6.390625 31.78125 6.390625 
Q 39.453125 6.390625 43.28125 13.890625 
Q 47.125 21.390625 47.125 36.375 
Q 47.125 51.421875 43.28125 58.90625 
Q 39.453125 66.40625 31.78125 66.40625 
z
M 31.78125 74.21875 
Q 44.046875 74.21875 50.515625 64.515625 
Q 56.984375 54.828125 56.984375 36.375 
Q 56.984375 17.96875 50.515625 8.265625 
Q 44.046875 -1.421875 31.78125 -1.421875 
Q 19.53125 -1.421875 13.0625 8.265625 
Q 6.59375 17.96875 6.59375 36.375 
Q 6.59375 54.828125 13.0625 64.515625 
Q 19.53125 74.21875 31.78125 74.21875 
z
" id="DejaVuSans-48"/>
      </defs>
      <g style="fill:#555555;" transform="translate(140.81875 392.598437)scale(0.1 -0.1)">
       <use xlink:href="#DejaVuSans-48"/>
      </g>
     </g>
    </g>
    <g id="xtick_2">
     <g id="line2d_3">
      <path clip-path="url(#pb64280a684)" d="M 292.8 378 
L 292.8 51.84 
" style="fill:none;stroke:#ffffff;stroke-linecap:square;stroke-width:0.8;"/>
     </g>
     <g id="line2d_4">
      <g>
       <use style="fill:#555555;stroke:#555555;stroke-width:0.8;" x="292.8" xlink:href="#m328c425a8b" y="378"/>
      </g>
     </g>
     <g id="text_2">
      <!-- 5 -->
      <defs>
       <path d="M 10.796875 72.90625 
L 49.515625 72.90625 
L 49.515625 64.59375 
L 19.828125 64.59375 
L 19.828125 46.734375 
Q 21.96875 47.46875 24.109375 47.828125 
Q 26.265625 48.1875 28.421875 48.1875 
Q 40.625 48.1875 47.75 41.5 
Q 54.890625 34.8125 54.890625 23.390625 
Q 54.890625 11.625 47.5625 5.09375 
Q 40.234375 -1.421875 26.90625 -1.421875 
Q 22.3125 -1.421875 17.546875 -0.640625 
Q 12.796875 0.140625 7.71875 1.703125 
L 7.71875 11.625 
Q 12.109375 9.234375 16.796875 8.0625 
Q 21.484375 6.890625 26.703125 6.890625 
Q 35.15625 6.890625 40.078125 11.328125 
Q 45.015625 15.765625 45.015625 23.390625 
Q 45.015625 31 40.078125 35.4375 
Q 35.15625 39.890625 26.703125 39.890625 
Q 22.75 39.890625 18.8125 39.015625 
Q 14.890625 38.140625 10.796875 36.28125 
z
" id="DejaVuSans-53"/>
      </defs>
      <g style="fill:#555555;" transform="translate(289.61875 392.598437)scale(0.1 -0.1)">
       <use xlink:href="#DejaVuSans-53"/>
      </g>
     </g>
    </g>
    <g id="xtick_3">
     <g id="line2d_5">
      <path clip-path="url(#pb64280a684)" d="M 441.6 378 
L 441.6 51.84 
" style="fill:none;stroke:#ffffff;stroke-linecap:square;stroke-width:0.8;"/>
     </g>
     <g id="line2d_6">
      <g>
       <use style="fill:#555555;stroke:#555555;stroke-width:0.8;" x="441.6" xlink:href="#m328c425a8b" y="378"/>
      </g>
     </g>
     <g id="text_3">
      <!-- 10 -->
      <defs>
       <path d="M 12.40625 8.296875 
L 28.515625 8.296875 
L 28.515625 63.921875 
L 10.984375 60.40625 
L 10.984375 69.390625 
L 28.421875 72.90625 
L 38.28125 72.90625 
L 38.28125 8.296875 
L 54.390625 8.296875 
L 54.390625 0 
L 12.40625 0 
z
" id="DejaVuSans-49"/>
      </defs>
      <g style="fill:#555555;" transform="translate(435.2375 392.598437)scale(0.1 -0.1)">
       <use xlink:href="#DejaVuSans-49"/>
       <use x="63.623047" xlink:href="#DejaVuSans-48"/>
      </g>
     </g>
    </g>
    <g id="xtick_4">
     <g id="line2d_7">
      <path clip-path="url(#pb64280a684)" d="M 590.4 378 
L 590.4 51.84 
" style="fill:none;stroke:#ffffff;stroke-linecap:square;stroke-width:0.8;"/>
     </g>
     <g id="line2d_8">
      <g>
       <use style="fill:#555555;stroke:#555555;stroke-width:0.8;" x="590.4" xlink:href="#m328c425a8b" y="378"/>
      </g>
     </g>
     <g id="text_4">
      <!-- 15 -->
      <g style="fill:#555555;" transform="translate(584.0375 392.598437)scale(0.1 -0.1)">
       <use xlink:href="#DejaVuSans-49"/>
       <use x="63.623047" xlink:href="#DejaVuSans-53"/>
      </g>
     </g>
    </g>
    <g id="xtick_5">
     <g id="line2d_9">
      <path clip-path="url(#pb64280a684)" d="M 739.2 378 
L 739.2 51.84 
" style="fill:none;stroke:#ffffff;stroke-linecap:square;stroke-width:0.8;"/>
     </g>
     <g id="line2d_10">
      <g>
       <use style="fill:#555555;stroke:#555555;stroke-width:0.8;" x="739.2" xlink:href="#m328c425a8b" y="378"/>
      </g>
     </g>
     <g id="text_5">
      <!-- 20 -->
      <defs>
       <path d="M 19.1875 8.296875 
L 53.609375 8.296875 
L 53.609375 0 
L 7.328125 0 
L 7.328125 8.296875 
Q 12.9375 14.109375 22.625 23.890625 
Q 32.328125 33.6875 34.8125 36.53125 
Q 39.546875 41.84375 41.421875 45.53125 
Q 43.3125 49.21875 43.3125 52.78125 
Q 43.3125 58.59375 39.234375 62.25 
Q 35.15625 65.921875 28.609375 65.921875 
Q 23.96875 65.921875 18.8125 64.3125 
Q 13.671875 62.703125 7.8125 59.421875 
L 7.8125 69.390625 
Q 13.765625 71.78125 18.9375 73 
Q 24.125 74.21875 28.421875 74.21875 
Q 39.75 74.21875 46.484375 68.546875 
Q 53.21875 62.890625 53.21875 53.421875 
Q 53.21875 48.921875 51.53125 44.890625 
Q 49.859375 40.875 45.40625 35.40625 
Q 44.1875 33.984375 37.640625 27.21875 
Q 31.109375 20.453125 19.1875 8.296875 
z
" id="DejaVuSans-50"/>
      </defs>
      <g style="fill:#555555;" transform="translate(732.8375 392.598437)scale(0.1 -0.1)">
       <use xlink:href="#DejaVuSans-50"/>
       <use x="63.623047" xlink:href="#DejaVuSans-48"/>
      </g>
     </g>
    </g>
    <g id="xtick_6">
     <g id="line2d_11">
      <path clip-path="url(#pb64280a684)" d="M 888 378 
L 888 51.84 
" style="fill:none;stroke:#ffffff;stroke-linecap:square;stroke-width:0.8;"/>
     </g>
     <g id="line2d_12">
      <g>
       <use style="fill:#555555;stroke:#555555;stroke-width:0.8;" x="888" xlink:href="#m328c425a8b" y="378"/>
      </g>
     </g>
     <g id="text_6">
      <!-- 25 -->
      <g style="fill:#555555;" transform="translate(881.6375 392.598437)scale(0.1 -0.1)">
       <use xlink:href="#DejaVuSans-50"/>
       <use x="63.623047" xlink:href="#DejaVuSans-53"/>
      </g>
     </g>
    </g>
    <g id="xtick_7">
     <g id="line2d_13">
      <path clip-path="url(#pb64280a684)" d="M 1036.8 378 
L 1036.8 51.84 
" style="fill:none;stroke:#ffffff;stroke-linecap:square;stroke-width:0.8;"/>
     </g>
     <g id="line2d_14">
      <g>
       <use style="fill:#555555;stroke:#555555;stroke-width:0.8;" x="1036.8" xlink:href="#m328c425a8b" y="378"/>
      </g>
     </g>
     <g id="text_7">
      <!-- 30 -->
      <defs>
       <path d="M 40.578125 39.3125 
Q 47.65625 37.796875 51.625 33 
Q 55.609375 28.21875 55.609375 21.1875 
Q 55.609375 10.40625 48.1875 4.484375 
Q 40.765625 -1.421875 27.09375 -1.421875 
Q 22.515625 -1.421875 17.65625 -0.515625 
Q 12.796875 0.390625 7.625 2.203125 
L 7.625 11.71875 
Q 11.71875 9.328125 16.59375 8.109375 
Q 21.484375 6.890625 26.8125 6.890625 
Q 36.078125 6.890625 40.9375 10.546875 
Q 45.796875 14.203125 45.796875 21.1875 
Q 45.796875 27.640625 41.28125 31.265625 
Q 36.765625 34.90625 28.71875 34.90625 
L 20.21875 34.90625 
L 20.21875 43.015625 
L 29.109375 43.015625 
Q 36.375 43.015625 40.234375 45.921875 
Q 44.09375 48.828125 44.09375 54.296875 
Q 44.09375 59.90625 40.109375 62.90625 
Q 36.140625 65.921875 28.71875 65.921875 
Q 24.65625 65.921875 20.015625 65.03125 
Q 15.375 64.15625 9.8125 62.3125 
L 9.8125 71.09375 
Q 15.4375 72.65625 20.34375 73.4375 
Q 25.25 74.21875 29.59375 74.21875 
Q 40.828125 74.21875 47.359375 69.109375 
Q 53.90625 64.015625 53.90625 55.328125 
Q 53.90625 49.265625 50.4375 45.09375 
Q 46.96875 40.921875 40.578125 39.3125 
z
" id="DejaVuSans-51"/>
      </defs>
      <g style="fill:#555555;" transform="translate(1030.4375 392.598437)scale(0.1 -0.1)">
       <use xlink:href="#DejaVuSans-51"/>
       <use x="63.623047" xlink:href="#DejaVuSans-48"/>
      </g>
     </g>
    </g>
    <g id="text_8">
     <!-- Epoch -->
     <defs>
      <path d="M 9.8125 72.90625 
L 55.90625 72.90625 
L 55.90625 64.59375 
L 19.671875 64.59375 
L 19.671875 43.015625 
L 54.390625 43.015625 
L 54.390625 34.71875 
L 19.671875 34.71875 
L 19.671875 8.296875 
L 56.78125 8.296875 
L 56.78125 0 
L 9.8125 0 
z
" id="DejaVuSans-69"/>
      <path d="M 18.109375 8.203125 
L 18.109375 -20.796875 
L 9.078125 -20.796875 
L 9.078125 54.6875 
L 18.109375 54.6875 
L 18.109375 46.390625 
Q 20.953125 51.265625 25.265625 53.625 
Q 29.59375 56 35.59375 56 
Q 45.5625 56 51.78125 48.09375 
Q 58.015625 40.1875 58.015625 27.296875 
Q 58.015625 14.40625 51.78125 6.484375 
Q 45.5625 -1.421875 35.59375 -1.421875 
Q 29.59375 -1.421875 25.265625 0.953125 
Q 20.953125 3.328125 18.109375 8.203125 
z
M 48.6875 27.296875 
Q 48.6875 37.203125 44.609375 42.84375 
Q 40.53125 48.484375 33.40625 48.484375 
Q 26.265625 48.484375 22.1875 42.84375 
Q 18.109375 37.203125 18.109375 27.296875 
Q 18.109375 17.390625 22.1875 11.75 
Q 26.265625 6.109375 33.40625 6.109375 
Q 40.53125 6.109375 44.609375 11.75 
Q 48.6875 17.390625 48.6875 27.296875 
z
" id="DejaVuSans-112"/>
      <path d="M 30.609375 48.390625 
Q 23.390625 48.390625 19.1875 42.75 
Q 14.984375 37.109375 14.984375 27.296875 
Q 14.984375 17.484375 19.15625 11.84375 
Q 23.34375 6.203125 30.609375 6.203125 
Q 37.796875 6.203125 41.984375 11.859375 
Q 46.1875 17.53125 46.1875 27.296875 
Q 46.1875 37.015625 41.984375 42.703125 
Q 37.796875 48.390625 30.609375 48.390625 
z
M 30.609375 56 
Q 42.328125 56 49.015625 48.375 
Q 55.71875 40.765625 55.71875 27.296875 
Q 55.71875 13.875 49.015625 6.21875 
Q 42.328125 -1.421875 30.609375 -1.421875 
Q 18.84375 -1.421875 12.171875 6.21875 
Q 5.515625 13.875 5.515625 27.296875 
Q 5.515625 40.765625 12.171875 48.375 
Q 18.84375 56 30.609375 56 
z
" id="DejaVuSans-111"/>
      <path d="M 48.78125 52.59375 
L 48.78125 44.1875 
Q 44.96875 46.296875 41.140625 47.34375 
Q 37.3125 48.390625 33.40625 48.390625 
Q 24.65625 48.390625 19.8125 42.84375 
Q 14.984375 37.3125 14.984375 27.296875 
Q 14.984375 17.28125 19.8125 11.734375 
Q 24.65625 6.203125 33.40625 6.203125 
Q 37.3125 6.203125 41.140625 7.25 
Q 44.96875 8.296875 48.78125 10.40625 
L 48.78125 2.09375 
Q 45.015625 0.34375 40.984375 -0.53125 
Q 36.96875 -1.421875 32.421875 -1.421875 
Q 20.0625 -1.421875 12.78125 6.34375 
Q 5.515625 14.109375 5.515625 27.296875 
Q 5.515625 40.671875 12.859375 48.328125 
Q 20.21875 56 33.015625 56 
Q 37.15625 56 41.109375 55.140625 
Q 45.0625 54.296875 48.78125 52.59375 
z
" id="DejaVuSans-99"/>
      <path d="M 54.890625 33.015625 
L 54.890625 0 
L 45.90625 0 
L 45.90625 32.71875 
Q 45.90625 40.484375 42.875 44.328125 
Q 39.84375 48.1875 33.796875 48.1875 
Q 26.515625 48.1875 22.3125 43.546875 
Q 18.109375 38.921875 18.109375 30.90625 
L 18.109375 0 
L 9.078125 0 
L 9.078125 75.984375 
L 18.109375 75.984375 
L 18.109375 46.1875 
Q 21.34375 51.125 25.703125 53.5625 
Q 30.078125 56 35.796875 56 
Q 45.21875 56 50.046875 50.171875 
Q 54.890625 44.34375 54.890625 33.015625 
z
" id="DejaVuSans-104"/>
     </defs>
     <g style="fill:#555555;" transform="translate(572.026875 407.79625)scale(0.12 -0.12)">
      <use xlink:href="#DejaVuSans-69"/>
      <use x="63.183594" xlink:href="#DejaVuSans-112"/>
      <use x="126.660156" xlink:href="#DejaVuSans-111"/>
      <use x="187.841797" xlink:href="#DejaVuSans-99"/>
      <use x="242.822266" xlink:href="#DejaVuSans-104"/>
     </g>
    </g>
   </g>
   <g id="matplotlib.axis_2">
    <g id="ytick_1">
     <g id="line2d_15">
      <path clip-path="url(#pb64280a684)" d="M 144 326.793673 
L 1036.8 326.793673 
" style="fill:none;stroke:#ffffff;stroke-linecap:square;stroke-width:0.8;"/>
     </g>
     <g id="line2d_16">
      <defs>
       <path d="M 0 0 
L -3.5 0 
" id="me1f7fced8c" style="stroke:#555555;stroke-width:0.8;"/>
      </defs>
      <g>
       <use style="fill:#555555;stroke:#555555;stroke-width:0.8;" x="144" xlink:href="#me1f7fced8c" y="326.793673"/>
      </g>
     </g>
     <g id="text_9">
      <!-- 20 -->
      <g style="fill:#555555;" transform="translate(124.275 330.592891)scale(0.1 -0.1)">
       <use xlink:href="#DejaVuSans-50"/>
       <use x="63.623047" xlink:href="#DejaVuSans-48"/>
      </g>
     </g>
    </g>
    <g id="ytick_2">
     <g id="line2d_17">
      <path clip-path="url(#pb64280a684)" d="M 144 260.586441 
L 1036.8 260.586441 
" style="fill:none;stroke:#ffffff;stroke-linecap:square;stroke-width:0.8;"/>
     </g>
     <g id="line2d_18">
      <g>
       <use style="fill:#555555;stroke:#555555;stroke-width:0.8;" x="144" xlink:href="#me1f7fced8c" y="260.586441"/>
      </g>
     </g>
     <g id="text_10">
      <!-- 40 -->
      <defs>
       <path d="M 37.796875 64.3125 
L 12.890625 25.390625 
L 37.796875 25.390625 
z
M 35.203125 72.90625 
L 47.609375 72.90625 
L 47.609375 25.390625 
L 58.015625 25.390625 
L 58.015625 17.1875 
L 47.609375 17.1875 
L 47.609375 0 
L 37.796875 0 
L 37.796875 17.1875 
L 4.890625 17.1875 
L 4.890625 26.703125 
z
" id="DejaVuSans-52"/>
      </defs>
      <g style="fill:#555555;" transform="translate(124.275 264.38566)scale(0.1 -0.1)">
       <use xlink:href="#DejaVuSans-52"/>
       <use x="63.623047" xlink:href="#DejaVuSans-48"/>
      </g>
     </g>
    </g>
    <g id="ytick_3">
     <g id="line2d_19">
      <path clip-path="url(#pb64280a684)" d="M 144 194.37921 
L 1036.8 194.37921 
" style="fill:none;stroke:#ffffff;stroke-linecap:square;stroke-width:0.8;"/>
     </g>
     <g id="line2d_20">
      <g>
       <use style="fill:#555555;stroke:#555555;stroke-width:0.8;" x="144" xlink:href="#me1f7fced8c" y="194.37921"/>
      </g>
     </g>
     <g id="text_11">
      <!-- 60 -->
      <defs>
       <path d="M 33.015625 40.375 
Q 26.375 40.375 22.484375 35.828125 
Q 18.609375 31.296875 18.609375 23.390625 
Q 18.609375 15.53125 22.484375 10.953125 
Q 26.375 6.390625 33.015625 6.390625 
Q 39.65625 6.390625 43.53125 10.953125 
Q 47.40625 15.53125 47.40625 23.390625 
Q 47.40625 31.296875 43.53125 35.828125 
Q 39.65625 40.375 33.015625 40.375 
z
M 52.59375 71.296875 
L 52.59375 62.3125 
Q 48.875 64.0625 45.09375 64.984375 
Q 41.3125 65.921875 37.59375 65.921875 
Q 27.828125 65.921875 22.671875 59.328125 
Q 17.53125 52.734375 16.796875 39.40625 
Q 19.671875 43.65625 24.015625 45.921875 
Q 28.375 48.1875 33.59375 48.1875 
Q 44.578125 48.1875 50.953125 41.515625 
Q 57.328125 34.859375 57.328125 23.390625 
Q 57.328125 12.15625 50.6875 5.359375 
Q 44.046875 -1.421875 33.015625 -1.421875 
Q 20.359375 -1.421875 13.671875 8.265625 
Q 6.984375 17.96875 6.984375 36.375 
Q 6.984375 53.65625 15.1875 63.9375 
Q 23.390625 74.21875 37.203125 74.21875 
Q 40.921875 74.21875 44.703125 73.484375 
Q 48.484375 72.75 52.59375 71.296875 
z
" id="DejaVuSans-54"/>
      </defs>
      <g style="fill:#555555;" transform="translate(124.275 198.178429)scale(0.1 -0.1)">
       <use xlink:href="#DejaVuSans-54"/>
       <use x="63.623047" xlink:href="#DejaVuSans-48"/>
      </g>
     </g>
    </g>
    <g id="ytick_4">
     <g id="line2d_21">
      <path clip-path="url(#pb64280a684)" d="M 144 128.171979 
L 1036.8 128.171979 
" style="fill:none;stroke:#ffffff;stroke-linecap:square;stroke-width:0.8;"/>
     </g>
     <g id="line2d_22">
      <g>
       <use style="fill:#555555;stroke:#555555;stroke-width:0.8;" x="144" xlink:href="#me1f7fced8c" y="128.171979"/>
      </g>
     </g>
     <g id="text_12">
      <!-- 80 -->
      <defs>
       <path d="M 31.78125 34.625 
Q 24.75 34.625 20.71875 30.859375 
Q 16.703125 27.09375 16.703125 20.515625 
Q 16.703125 13.921875 20.71875 10.15625 
Q 24.75 6.390625 31.78125 6.390625 
Q 38.8125 6.390625 42.859375 10.171875 
Q 46.921875 13.96875 46.921875 20.515625 
Q 46.921875 27.09375 42.890625 30.859375 
Q 38.875 34.625 31.78125 34.625 
z
M 21.921875 38.8125 
Q 15.578125 40.375 12.03125 44.71875 
Q 8.5 49.078125 8.5 55.328125 
Q 8.5 64.0625 14.71875 69.140625 
Q 20.953125 74.21875 31.78125 74.21875 
Q 42.671875 74.21875 48.875 69.140625 
Q 55.078125 64.0625 55.078125 55.328125 
Q 55.078125 49.078125 51.53125 44.71875 
Q 48 40.375 41.703125 38.8125 
Q 48.828125 37.15625 52.796875 32.3125 
Q 56.78125 27.484375 56.78125 20.515625 
Q 56.78125 9.90625 50.3125 4.234375 
Q 43.84375 -1.421875 31.78125 -1.421875 
Q 19.734375 -1.421875 13.25 4.234375 
Q 6.78125 9.90625 6.78125 20.515625 
Q 6.78125 27.484375 10.78125 32.3125 
Q 14.796875 37.15625 21.921875 38.8125 
z
M 18.3125 54.390625 
Q 18.3125 48.734375 21.84375 45.5625 
Q 25.390625 42.390625 31.78125 42.390625 
Q 38.140625 42.390625 41.71875 45.5625 
Q 45.3125 48.734375 45.3125 54.390625 
Q 45.3125 60.0625 41.71875 63.234375 
Q 38.140625 66.40625 31.78125 66.40625 
Q 25.390625 66.40625 21.84375 63.234375 
Q 18.3125 60.0625 18.3125 54.390625 
z
" id="DejaVuSans-56"/>
      </defs>
      <g style="fill:#555555;" transform="translate(124.275 131.971197)scale(0.1 -0.1)">
       <use xlink:href="#DejaVuSans-56"/>
       <use x="63.623047" xlink:href="#DejaVuSans-48"/>
      </g>
     </g>
    </g>
    <g id="ytick_5">
     <g id="line2d_23">
      <path clip-path="url(#pb64280a684)" d="M 144 61.964747 
L 1036.8 61.964747 
" style="fill:none;stroke:#ffffff;stroke-linecap:square;stroke-width:0.8;"/>
     </g>
     <g id="line2d_24">
      <g>
       <use style="fill:#555555;stroke:#555555;stroke-width:0.8;" x="144" xlink:href="#me1f7fced8c" y="61.964747"/>
      </g>
     </g>
     <g id="text_13">
      <!-- 100 -->
      <g style="fill:#555555;" transform="translate(117.9125 65.763966)scale(0.1 -0.1)">
       <use xlink:href="#DejaVuSans-49"/>
       <use x="63.623047" xlink:href="#DejaVuSans-48"/>
       <use x="127.246094" xlink:href="#DejaVuSans-48"/>
      </g>
     </g>
    </g>
    <g id="text_14">
     <!-- Test Accuracy -->
     <defs>
      <path d="M -0.296875 72.90625 
L 61.375 72.90625 
L 61.375 64.59375 
L 35.5 64.59375 
L 35.5 0 
L 25.59375 0 
L 25.59375 64.59375 
L -0.296875 64.59375 
z
" id="DejaVuSans-84"/>
      <path d="M 56.203125 29.59375 
L 56.203125 25.203125 
L 14.890625 25.203125 
Q 15.484375 15.921875 20.484375 11.0625 
Q 25.484375 6.203125 34.421875 6.203125 
Q 39.59375 6.203125 44.453125 7.46875 
Q 49.3125 8.734375 54.109375 11.28125 
L 54.109375 2.78125 
Q 49.265625 0.734375 44.1875 -0.34375 
Q 39.109375 -1.421875 33.890625 -1.421875 
Q 20.796875 -1.421875 13.15625 6.1875 
Q 5.515625 13.8125 5.515625 26.8125 
Q 5.515625 40.234375 12.765625 48.109375 
Q 20.015625 56 32.328125 56 
Q 43.359375 56 49.78125 48.890625 
Q 56.203125 41.796875 56.203125 29.59375 
z
M 47.21875 32.234375 
Q 47.125 39.59375 43.09375 43.984375 
Q 39.0625 48.390625 32.421875 48.390625 
Q 24.90625 48.390625 20.390625 44.140625 
Q 15.875 39.890625 15.1875 32.171875 
z
" id="DejaVuSans-101"/>
      <path d="M 44.28125 53.078125 
L 44.28125 44.578125 
Q 40.484375 46.53125 36.375 47.5 
Q 32.28125 48.484375 27.875 48.484375 
Q 21.1875 48.484375 17.84375 46.4375 
Q 14.5 44.390625 14.5 40.28125 
Q 14.5 37.15625 16.890625 35.375 
Q 19.28125 33.59375 26.515625 31.984375 
L 29.59375 31.296875 
Q 39.15625 29.25 43.1875 25.515625 
Q 47.21875 21.78125 47.21875 15.09375 
Q 47.21875 7.46875 41.1875 3.015625 
Q 35.15625 -1.421875 24.609375 -1.421875 
Q 20.21875 -1.421875 15.453125 -0.5625 
Q 10.6875 0.296875 5.421875 2 
L 5.421875 11.28125 
Q 10.40625 8.6875 15.234375 7.390625 
Q 20.0625 6.109375 24.8125 6.109375 
Q 31.15625 6.109375 34.5625 8.28125 
Q 37.984375 10.453125 37.984375 14.40625 
Q 37.984375 18.0625 35.515625 20.015625 
Q 33.0625 21.96875 24.703125 23.78125 
L 21.578125 24.515625 
Q 13.234375 26.265625 9.515625 29.90625 
Q 5.8125 33.546875 5.8125 39.890625 
Q 5.8125 47.609375 11.28125 51.796875 
Q 16.75 56 26.8125 56 
Q 31.78125 56 36.171875 55.265625 
Q 40.578125 54.546875 44.28125 53.078125 
z
" id="DejaVuSans-115"/>
      <path d="M 18.3125 70.21875 
L 18.3125 54.6875 
L 36.8125 54.6875 
L 36.8125 47.703125 
L 18.3125 47.703125 
L 18.3125 18.015625 
Q 18.3125 11.328125 20.140625 9.421875 
Q 21.96875 7.515625 27.59375 7.515625 
L 36.8125 7.515625 
L 36.8125 0 
L 27.59375 0 
Q 17.1875 0 13.234375 3.875 
Q 9.28125 7.765625 9.28125 18.015625 
L 9.28125 47.703125 
L 2.6875 47.703125 
L 2.6875 54.6875 
L 9.28125 54.6875 
L 9.28125 70.21875 
z
" id="DejaVuSans-116"/>
      <path id="DejaVuSans-32"/>
      <path d="M 34.1875 63.1875 
L 20.796875 26.90625 
L 47.609375 26.90625 
z
M 28.609375 72.90625 
L 39.796875 72.90625 
L 67.578125 0 
L 57.328125 0 
L 50.6875 18.703125 
L 17.828125 18.703125 
L 11.1875 0 
L 0.78125 0 
z
" id="DejaVuSans-65"/>
      <path d="M 8.5 21.578125 
L 8.5 54.6875 
L 17.484375 54.6875 
L 17.484375 21.921875 
Q 17.484375 14.15625 20.5 10.265625 
Q 23.53125 6.390625 29.59375 6.390625 
Q 36.859375 6.390625 41.078125 11.03125 
Q 45.3125 15.671875 45.3125 23.6875 
L 45.3125 54.6875 
L 54.296875 54.6875 
L 54.296875 0 
L 45.3125 0 
L 45.3125 8.40625 
Q 42.046875 3.421875 37.71875 1 
Q 33.40625 -1.421875 27.6875 -1.421875 
Q 18.265625 -1.421875 13.375 4.4375 
Q 8.5 10.296875 8.5 21.578125 
z
M 31.109375 56 
z
" id="DejaVuSans-117"/>
      <path d="M 41.109375 46.296875 
Q 39.59375 47.171875 37.8125 47.578125 
Q 36.03125 48 33.890625 48 
Q 26.265625 48 22.1875 43.046875 
Q 18.109375 38.09375 18.109375 28.8125 
L 18.109375 0 
L 9.078125 0 
L 9.078125 54.6875 
L 18.109375 54.6875 
L 18.109375 46.1875 
Q 20.953125 51.171875 25.484375 53.578125 
Q 30.03125 56 36.53125 56 
Q 37.453125 56 38.578125 55.875 
Q 39.703125 55.765625 41.0625 55.515625 
z
" id="DejaVuSans-114"/>
      <path d="M 34.28125 27.484375 
Q 23.390625 27.484375 19.1875 25 
Q 14.984375 22.515625 14.984375 16.5 
Q 14.984375 11.71875 18.140625 8.90625 
Q 21.296875 6.109375 26.703125 6.109375 
Q 34.1875 6.109375 38.703125 11.40625 
Q 43.21875 16.703125 43.21875 25.484375 
L 43.21875 27.484375 
z
M 52.203125 31.203125 
L 52.203125 0 
L 43.21875 0 
L 43.21875 8.296875 
Q 40.140625 3.328125 35.546875 0.953125 
Q 30.953125 -1.421875 24.3125 -1.421875 
Q 15.921875 -1.421875 10.953125 3.296875 
Q 6 8.015625 6 15.921875 
Q 6 25.140625 12.171875 29.828125 
Q 18.359375 34.515625 30.609375 34.515625 
L 43.21875 34.515625 
L 43.21875 35.40625 
Q 43.21875 41.609375 39.140625 45 
Q 35.0625 48.390625 27.6875 48.390625 
Q 23 48.390625 18.546875 47.265625 
Q 14.109375 46.140625 10.015625 43.890625 
L 10.015625 52.203125 
Q 14.9375 54.109375 19.578125 55.046875 
Q 24.21875 56 28.609375 56 
Q 40.484375 56 46.34375 49.84375 
Q 52.203125 43.703125 52.203125 31.203125 
z
" id="DejaVuSans-97"/>
      <path d="M 32.171875 -5.078125 
Q 28.375 -14.84375 24.75 -17.8125 
Q 21.140625 -20.796875 15.09375 -20.796875 
L 7.90625 -20.796875 
L 7.90625 -13.28125 
L 13.1875 -13.28125 
Q 16.890625 -13.28125 18.9375 -11.515625 
Q 21 -9.765625 23.484375 -3.21875 
L 25.09375 0.875 
L 2.984375 54.6875 
L 12.5 54.6875 
L 29.59375 11.921875 
L 46.6875 54.6875 
L 56.203125 54.6875 
z
" id="DejaVuSans-121"/>
     </defs>
     <g style="fill:#555555;" transform="translate(111.416875 257.143125)rotate(-90)scale(0.12 -0.12)">
      <use xlink:href="#DejaVuSans-84"/>
      <use x="60.818359" xlink:href="#DejaVuSans-101"/>
      <use x="122.341797" xlink:href="#DejaVuSans-115"/>
      <use x="174.441406" xlink:href="#DejaVuSans-116"/>
      <use x="213.650391" xlink:href="#DejaVuSans-32"/>
      <use x="245.4375" xlink:href="#DejaVuSans-65"/>
      <use x="313.830078" xlink:href="#DejaVuSans-99"/>
      <use x="368.810547" xlink:href="#DejaVuSans-99"/>
      <use x="423.791016" xlink:href="#DejaVuSans-117"/>
      <use x="487.169922" xlink:href="#DejaVuSans-114"/>
      <use x="528.283203" xlink:href="#DejaVuSans-97"/>
      <use x="589.5625" xlink:href="#DejaVuSans-99"/>
      <use x="644.542969" xlink:href="#DejaVuSans-121"/>
     </g>
    </g>
   </g>
   <g id="line2d_25">
    <path clip-path="url(#pb64280a684)" d="M 173.76 363.174545 
L 203.52 299.383877 
L 233.28 182.660527 
L 263.04 161.83835 
L 292.8 137.705811 
L 322.56 128.469899 
L 352.32 126.218877 
L 382.08 123.471271 
L 411.84 121.617452 
L 441.6 121.28642 
L 471.36 120.127799 
L 501.12 117.347107 
L 530.88 115.195367 
L 560.64 113.043627 
L 590.4 113.242241 
L 620.16 110.891887 
L 649.92 106.919463 
L 679.68 105.032558 
L 709.44 104.966337 
L 739.2 107.151188 
L 768.96 104.635306 
L 798.72 103.840826 
L 828.48 99.603567 
L 858.24 102.318063 
L 888 97.882165 
L 917.76 96.392513 
L 947.52 93.678017 
L 977.28 93.380071 
L 1007.04 92.188339 
L 1036.8 89.8049 
" style="fill:none;stroke:#e24a33;stroke-linecap:square;stroke-width:1.5;"/>
    <defs>
     <path d="M 0 3 
C 0.795609 3 1.55874 2.683901 2.12132 2.12132 
C 2.683901 1.55874 3 0.795609 3 0 
C 3 -0.795609 2.683901 -1.55874 2.12132 -2.12132 
C 1.55874 -2.683901 0.795609 -3 0 -3 
C -0.795609 -3 -1.55874 -2.683901 -2.12132 -2.12132 
C -2.683901 -1.55874 -3 -0.795609 -3 0 
C -3 0.795609 -2.683901 1.55874 -2.12132 2.12132 
C -1.55874 2.683901 -0.795609 3 0 3 
z
" id="m150ccaf213" style="stroke:#ffffff;stroke-width:0.75;"/>
    </defs>
    <g clip-path="url(#pb64280a684)">
     <use style="fill:#e24a33;stroke:#ffffff;stroke-width:0.75;" x="173.76" xlink:href="#m150ccaf213" y="363.174545"/>
     <use style="fill:#e24a33;stroke:#ffffff;stroke-width:0.75;" x="203.52" xlink:href="#m150ccaf213" y="299.383877"/>
     <use style="fill:#e24a33;stroke:#ffffff;stroke-width:0.75;" x="233.28" xlink:href="#m150ccaf213" y="182.660527"/>
     <use style="fill:#e24a33;stroke:#ffffff;stroke-width:0.75;" x="263.04" xlink:href="#m150ccaf213" y="161.83835"/>
     <use style="fill:#e24a33;stroke:#ffffff;stroke-width:0.75;" x="292.8" xlink:href="#m150ccaf213" y="137.705811"/>
     <use style="fill:#e24a33;stroke:#ffffff;stroke-width:0.75;" x="322.56" xlink:href="#m150ccaf213" y="128.469899"/>
     <use style="fill:#e24a33;stroke:#ffffff;stroke-width:0.75;" x="352.32" xlink:href="#m150ccaf213" y="126.218877"/>
     <use style="fill:#e24a33;stroke:#ffffff;stroke-width:0.75;" x="382.08" xlink:href="#m150ccaf213" y="123.471271"/>
     <use style="fill:#e24a33;stroke:#ffffff;stroke-width:0.75;" x="411.84" xlink:href="#m150ccaf213" y="121.617452"/>
     <use style="fill:#e24a33;stroke:#ffffff;stroke-width:0.75;" x="441.6" xlink:href="#m150ccaf213" y="121.28642"/>
     <use style="fill:#e24a33;stroke:#ffffff;stroke-width:0.75;" x="471.36" xlink:href="#m150ccaf213" y="120.127799"/>
     <use style="fill:#e24a33;stroke:#ffffff;stroke-width:0.75;" x="501.12" xlink:href="#m150ccaf213" y="117.347107"/>
     <use style="fill:#e24a33;stroke:#ffffff;stroke-width:0.75;" x="530.88" xlink:href="#m150ccaf213" y="115.195367"/>
     <use style="fill:#e24a33;stroke:#ffffff;stroke-width:0.75;" x="560.64" xlink:href="#m150ccaf213" y="113.043627"/>
     <use style="fill:#e24a33;stroke:#ffffff;stroke-width:0.75;" x="590.4" xlink:href="#m150ccaf213" y="113.242241"/>
     <use style="fill:#e24a33;stroke:#ffffff;stroke-width:0.75;" x="620.16" xlink:href="#m150ccaf213" y="110.891887"/>
     <use style="fill:#e24a33;stroke:#ffffff;stroke-width:0.75;" x="649.92" xlink:href="#m150ccaf213" y="106.919463"/>
     <use style="fill:#e24a33;stroke:#ffffff;stroke-width:0.75;" x="679.68" xlink:href="#m150ccaf213" y="105.032558"/>
     <use style="fill:#e24a33;stroke:#ffffff;stroke-width:0.75;" x="709.44" xlink:href="#m150ccaf213" y="104.966337"/>
     <use style="fill:#e24a33;stroke:#ffffff;stroke-width:0.75;" x="739.2" xlink:href="#m150ccaf213" y="107.151188"/>
     <use style="fill:#e24a33;stroke:#ffffff;stroke-width:0.75;" x="768.96" xlink:href="#m150ccaf213" y="104.635306"/>
     <use style="fill:#e24a33;stroke:#ffffff;stroke-width:0.75;" x="798.72" xlink:href="#m150ccaf213" y="103.840826"/>
     <use style="fill:#e24a33;stroke:#ffffff;stroke-width:0.75;" x="828.48" xlink:href="#m150ccaf213" y="99.603567"/>
     <use style="fill:#e24a33;stroke:#ffffff;stroke-width:0.75;" x="858.24" xlink:href="#m150ccaf213" y="102.318063"/>
     <use style="fill:#e24a33;stroke:#ffffff;stroke-width:0.75;" x="888" xlink:href="#m150ccaf213" y="97.882165"/>
     <use style="fill:#e24a33;stroke:#ffffff;stroke-width:0.75;" x="917.76" xlink:href="#m150ccaf213" y="96.392513"/>
     <use style="fill:#e24a33;stroke:#ffffff;stroke-width:0.75;" x="947.52" xlink:href="#m150ccaf213" y="93.678017"/>
     <use style="fill:#e24a33;stroke:#ffffff;stroke-width:0.75;" x="977.28" xlink:href="#m150ccaf213" y="93.380071"/>
     <use style="fill:#e24a33;stroke:#ffffff;stroke-width:0.75;" x="1007.04" xlink:href="#m150ccaf213" y="92.188339"/>
     <use style="fill:#e24a33;stroke:#ffffff;stroke-width:0.75;" x="1036.8" xlink:href="#m150ccaf213" y="89.8049"/>
    </g>
   </g>
   <g id="line2d_26">
    <path clip-path="url(#pb64280a684)" d="M 173.76 355.428299 
L 203.52 355.428299 
L 233.28 333.64612 
L 263.04 193.684037 
L 292.8 153.694863 
L 322.56 144.65759 
L 352.32 142.340322 
L 382.08 126.649215 
L 411.84 121.28642 
L 441.6 113.043627 
L 471.36 110.428439 
L 501.12 106.058762 
L 530.88 105.032558 
L 560.64 103.708409 
L 590.4 101.523558 
L 620.16 101.358055 
L 649.92 102.020117 
L 679.68 102.020117 
L 709.44 99.934598 
L 739.2 101.689086 
L 768.96 101.192527 
L 798.72 100.100101 
L 828.48 101.424251 
L 858.24 102.582873 
L 888 103.675298 
L 917.76 99.934598 
L 947.52 100.894606 
L 977.28 100.166323 
L 1007.04 98.544253 
L 1036.8 97.551134 
L 1066.56 98.676645 
L 1096.32 97.782858 
L 1126.08 98.147 
L 1153 98.356611 
" style="fill:none;stroke:#348abd;stroke-dasharray:6,2.25;stroke-dashoffset:0;stroke-width:1.5;"/>
    <defs>
     <path d="M -1.5 3 
L 0 1.5 
L 1.5 3 
L 3 1.5 
L 1.5 0 
L 3 -1.5 
L 1.5 -3 
L 0 -1.5 
L -1.5 -3 
L -3 -1.5 
L -1.5 0 
L -3 1.5 
z
" id="m2195902d73" style="stroke:#ffffff;stroke-linejoin:miter;stroke-width:0.75;"/>
    </defs>
    <g clip-path="url(#pb64280a684)">
     <use style="fill:#348abd;stroke:#ffffff;stroke-linejoin:miter;stroke-width:0.75;" x="173.76" xlink:href="#m2195902d73" y="355.428299"/>
     <use style="fill:#348abd;stroke:#ffffff;stroke-linejoin:miter;stroke-width:0.75;" x="203.52" xlink:href="#m2195902d73" y="355.428299"/>
     <use style="fill:#348abd;stroke:#ffffff;stroke-linejoin:miter;stroke-width:0.75;" x="233.28" xlink:href="#m2195902d73" y="333.64612"/>
     <use style="fill:#348abd;stroke:#ffffff;stroke-linejoin:miter;stroke-width:0.75;" x="263.04" xlink:href="#m2195902d73" y="193.684037"/>
     <use style="fill:#348abd;stroke:#ffffff;stroke-linejoin:miter;stroke-width:0.75;" x="292.8" xlink:href="#m2195902d73" y="153.694863"/>
     <use style="fill:#348abd;stroke:#ffffff;stroke-linejoin:miter;stroke-width:0.75;" x="322.56" xlink:href="#m2195902d73" y="144.65759"/>
     <use style="fill:#348abd;stroke:#ffffff;stroke-linejoin:miter;stroke-width:0.75;" x="352.32" xlink:href="#m2195902d73" y="142.340322"/>
     <use style="fill:#348abd;stroke:#ffffff;stroke-linejoin:miter;stroke-width:0.75;" x="382.08" xlink:href="#m2195902d73" y="126.649215"/>
     <use style="fill:#348abd;stroke:#ffffff;stroke-linejoin:miter;stroke-width:0.75;" x="411.84" xlink:href="#m2195902d73" y="121.28642"/>
     <use style="fill:#348abd;stroke:#ffffff;stroke-linejoin:miter;stroke-width:0.75;" x="441.6" xlink:href="#m2195902d73" y="113.043627"/>
     <use style="fill:#348abd;stroke:#ffffff;stroke-linejoin:miter;stroke-width:0.75;" x="471.36" xlink:href="#m2195902d73" y="110.428439"/>
     <use style="fill:#348abd;stroke:#ffffff;stroke-linejoin:miter;stroke-width:0.75;" x="501.12" xlink:href="#m2195902d73" y="106.058762"/>
     <use style="fill:#348abd;stroke:#ffffff;stroke-linejoin:miter;stroke-width:0.75;" x="530.88" xlink:href="#m2195902d73" y="105.032558"/>
     <use style="fill:#348abd;stroke:#ffffff;stroke-linejoin:miter;stroke-width:0.75;" x="560.64" xlink:href="#m2195902d73" y="103.708409"/>
     <use style="fill:#348abd;stroke:#ffffff;stroke-linejoin:miter;stroke-width:0.75;" x="590.4" xlink:href="#m2195902d73" y="101.523558"/>
     <use style="fill:#348abd;stroke:#ffffff;stroke-linejoin:miter;stroke-width:0.75;" x="620.16" xlink:href="#m2195902d73" y="101.358055"/>
     <use style="fill:#348abd;stroke:#ffffff;stroke-linejoin:miter;stroke-width:0.75;" x="649.92" xlink:href="#m2195902d73" y="102.020117"/>
     <use style="fill:#348abd;stroke:#ffffff;stroke-linejoin:miter;stroke-width:0.75;" x="679.68" xlink:href="#m2195902d73" y="102.020117"/>
     <use style="fill:#348abd;stroke:#ffffff;stroke-linejoin:miter;stroke-width:0.75;" x="709.44" xlink:href="#m2195902d73" y="99.934598"/>
     <use style="fill:#348abd;stroke:#ffffff;stroke-linejoin:miter;stroke-width:0.75;" x="739.2" xlink:href="#m2195902d73" y="101.689086"/>
     <use style="fill:#348abd;stroke:#ffffff;stroke-linejoin:miter;stroke-width:0.75;" x="768.96" xlink:href="#m2195902d73" y="101.192527"/>
     <use style="fill:#348abd;stroke:#ffffff;stroke-linejoin:miter;stroke-width:0.75;" x="798.72" xlink:href="#m2195902d73" y="100.100101"/>
     <use style="fill:#348abd;stroke:#ffffff;stroke-linejoin:miter;stroke-width:0.75;" x="828.48" xlink:href="#m2195902d73" y="101.424251"/>
     <use style="fill:#348abd;stroke:#ffffff;stroke-linejoin:miter;stroke-width:0.75;" x="858.24" xlink:href="#m2195902d73" y="102.582873"/>
     <use style="fill:#348abd;stroke:#ffffff;stroke-linejoin:miter;stroke-width:0.75;" x="888" xlink:href="#m2195902d73" y="103.675298"/>
     <use style="fill:#348abd;stroke:#ffffff;stroke-linejoin:miter;stroke-width:0.75;" x="917.76" xlink:href="#m2195902d73" y="99.934598"/>
     <use style="fill:#348abd;stroke:#ffffff;stroke-linejoin:miter;stroke-width:0.75;" x="947.52" xlink:href="#m2195902d73" y="100.894606"/>
     <use style="fill:#348abd;stroke:#ffffff;stroke-linejoin:miter;stroke-width:0.75;" x="977.28" xlink:href="#m2195902d73" y="100.166323"/>
     <use style="fill:#348abd;stroke:#ffffff;stroke-linejoin:miter;stroke-width:0.75;" x="1007.04" xlink:href="#m2195902d73" y="98.544253"/>
     <use style="fill:#348abd;stroke:#ffffff;stroke-linejoin:miter;stroke-width:0.75;" x="1036.8" xlink:href="#m2195902d73" y="97.551134"/>
     <use style="fill:#348abd;stroke:#ffffff;stroke-linejoin:miter;stroke-width:0.75;" x="1066.56" xlink:href="#m2195902d73" y="98.676645"/>
     <use style="fill:#348abd;stroke:#ffffff;stroke-linejoin:miter;stroke-width:0.75;" x="1096.32" xlink:href="#m2195902d73" y="97.782858"/>
     <use style="fill:#348abd;stroke:#ffffff;stroke-linejoin:miter;stroke-width:0.75;" x="1126.08" xlink:href="#m2195902d73" y="98.147"/>
     <use style="fill:#348abd;stroke:#ffffff;stroke-linejoin:miter;stroke-width:0.75;" x="1155.84" xlink:href="#m2195902d73" y="98.378724"/>
     <use style="fill:#348abd;stroke:#ffffff;stroke-linejoin:miter;stroke-width:0.75;" x="1185.6" xlink:href="#m2195902d73" y="97.385606"/>
     <use style="fill:#348abd;stroke:#ffffff;stroke-linejoin:miter;stroke-width:0.75;" x="1215.36" xlink:href="#m2195902d73" y="97.551134"/>
     <use style="fill:#348abd;stroke:#ffffff;stroke-linejoin:miter;stroke-width:0.75;" x="1245.12" xlink:href="#m2195902d73" y="97.981472"/>
     <use style="fill:#348abd;stroke:#ffffff;stroke-linejoin:miter;stroke-width:0.75;" x="1274.88" xlink:href="#m2195902d73" y="99.835292"/>
     <use style="fill:#348abd;stroke:#ffffff;stroke-linejoin:miter;stroke-width:0.75;" x="1304.64" xlink:href="#m2195902d73" y="97.451827"/>
     <use style="fill:#348abd;stroke:#ffffff;stroke-linejoin:miter;stroke-width:0.75;" x="1334.4" xlink:href="#m2195902d73" y="97.749748"/>
     <use style="fill:#348abd;stroke:#ffffff;stroke-linejoin:miter;stroke-width:0.75;" x="1364.16" xlink:href="#m2195902d73" y="97.186992"/>
     <use style="fill:#348abd;stroke:#ffffff;stroke-linejoin:miter;stroke-width:0.75;" x="1393.92" xlink:href="#m2195902d73" y="97.385606"/>
     <use style="fill:#348abd;stroke:#ffffff;stroke-linejoin:miter;stroke-width:0.75;" x="1423.68" xlink:href="#m2195902d73" y="98.147"/>
     <use style="fill:#348abd;stroke:#ffffff;stroke-linejoin:miter;stroke-width:0.75;" x="1453.44" xlink:href="#m2195902d73" y="98.080804"/>
     <use style="fill:#348abd;stroke:#ffffff;stroke-linejoin:miter;stroke-width:0.75;" x="1483.2" xlink:href="#m2195902d73" y="98.610449"/>
     <use style="fill:#348abd;stroke:#ffffff;stroke-linejoin:miter;stroke-width:0.75;" x="1512.96" xlink:href="#m2195902d73" y="95.895953"/>
     <use style="fill:#348abd;stroke:#ffffff;stroke-linejoin:miter;stroke-width:0.75;" x="1542.72" xlink:href="#m2195902d73" y="96.756654"/>
     <use style="fill:#348abd;stroke:#ffffff;stroke-linejoin:miter;stroke-width:0.75;" x="1572.48" xlink:href="#m2195902d73" y="97.186992"/>
     <use style="fill:#348abd;stroke:#ffffff;stroke-linejoin:miter;stroke-width:0.75;" x="1602.24" xlink:href="#m2195902d73" y="97.484938"/>
     <use style="fill:#348abd;stroke:#ffffff;stroke-linejoin:miter;stroke-width:0.75;" x="1632" xlink:href="#m2195902d73" y="95.796646"/>
    </g>
   </g>
   <g id="line2d_27">
    <path clip-path="url(#pb64280a684)" d="M 173.76 314.081884 
L 203.52 137.672725 
L 233.28 95.664229 
L 263.04 87.454521 
L 292.8 82.455893 
L 322.56 76.530343 
L 352.32 74.941358 
L 382.08 73.716541 
L 411.84 72.723422 
L 441.6 71.23377 
L 471.36 70.968935 
L 501.12 70.373069 
L 530.88 71.035131 
L 560.64 68.883391 
L 590.4 69.015808 
L 620.16 68.618581 
L 649.92 68.55236 
L 679.68 68.419942 
L 709.44 67.890297 
L 739.2 68.0558 
L 768.96 67.890297 
L 798.72 67.393738 
L 828.48 67.360627 
L 858.24 67.294431 
L 888 67.327542 
L 917.76 67.691684 
L 947.52 66.93029 
L 977.28 67.45996 
L 1007.04 66.830983 
L 1036.8 66.665455 
" style="fill:none;stroke:#988ed5;stroke-dasharray:1.5,1.5;stroke-dashoffset:0;stroke-width:1.5;"/>
    <defs>
     <path d="M -3 3 
L 3 3 
L 3 -3 
L -3 -3 
z
" id="m9f1f93244e" style="stroke:#ffffff;stroke-linejoin:miter;stroke-width:0.75;"/>
    </defs>
    <g clip-path="url(#pb64280a684)">
     <use style="fill:#988ed5;stroke:#ffffff;stroke-linejoin:miter;stroke-width:0.75;" x="173.76" xlink:href="#m9f1f93244e" y="314.081884"/>
     <use style="fill:#988ed5;stroke:#ffffff;stroke-linejoin:miter;stroke-width:0.75;" x="203.52" xlink:href="#m9f1f93244e" y="137.672725"/>
     <use style="fill:#988ed5;stroke:#ffffff;stroke-linejoin:miter;stroke-width:0.75;" x="233.28" xlink:href="#m9f1f93244e" y="95.664229"/>
     <use style="fill:#988ed5;stroke:#ffffff;stroke-linejoin:miter;stroke-width:0.75;" x="263.04" xlink:href="#m9f1f93244e" y="87.454521"/>
     <use style="fill:#988ed5;stroke:#ffffff;stroke-linejoin:miter;stroke-width:0.75;" x="292.8" xlink:href="#m9f1f93244e" y="82.455893"/>
     <use style="fill:#988ed5;stroke:#ffffff;stroke-linejoin:miter;stroke-width:0.75;" x="322.56" xlink:href="#m9f1f93244e" y="76.530343"/>
     <use style="fill:#988ed5;stroke:#ffffff;stroke-linejoin:miter;stroke-width:0.75;" x="352.32" xlink:href="#m9f1f93244e" y="74.941358"/>
     <use style="fill:#988ed5;stroke:#ffffff;stroke-linejoin:miter;stroke-width:0.75;" x="382.08" xlink:href="#m9f1f93244e" y="73.716541"/>
     <use style="fill:#988ed5;stroke:#ffffff;stroke-linejoin:miter;stroke-width:0.75;" x="411.84" xlink:href="#m9f1f93244e" y="72.723422"/>
     <use style="fill:#988ed5;stroke:#ffffff;stroke-linejoin:miter;stroke-width:0.75;" x="441.6" xlink:href="#m9f1f93244e" y="71.23377"/>
     <use style="fill:#988ed5;stroke:#ffffff;stroke-linejoin:miter;stroke-width:0.75;" x="471.36" xlink:href="#m9f1f93244e" y="70.968935"/>
     <use style="fill:#988ed5;stroke:#ffffff;stroke-linejoin:miter;stroke-width:0.75;" x="501.12" xlink:href="#m9f1f93244e" y="70.373069"/>
     <use style="fill:#988ed5;stroke:#ffffff;stroke-linejoin:miter;stroke-width:0.75;" x="530.88" xlink:href="#m9f1f93244e" y="71.035131"/>
     <use style="fill:#988ed5;stroke:#ffffff;stroke-linejoin:miter;stroke-width:0.75;" x="560.64" xlink:href="#m9f1f93244e" y="68.883391"/>
     <use style="fill:#988ed5;stroke:#ffffff;stroke-linejoin:miter;stroke-width:0.75;" x="590.4" xlink:href="#m9f1f93244e" y="69.015808"/>
     <use style="fill:#988ed5;stroke:#ffffff;stroke-linejoin:miter;stroke-width:0.75;" x="620.16" xlink:href="#m9f1f93244e" y="68.618581"/>
     <use style="fill:#988ed5;stroke:#ffffff;stroke-linejoin:miter;stroke-width:0.75;" x="649.92" xlink:href="#m9f1f93244e" y="68.55236"/>
     <use style="fill:#988ed5;stroke:#ffffff;stroke-linejoin:miter;stroke-width:0.75;" x="679.68" xlink:href="#m9f1f93244e" y="68.419942"/>
     <use style="fill:#988ed5;stroke:#ffffff;stroke-linejoin:miter;stroke-width:0.75;" x="709.44" xlink:href="#m9f1f93244e" y="67.890297"/>
     <use style="fill:#988ed5;stroke:#ffffff;stroke-linejoin:miter;stroke-width:0.75;" x="739.2" xlink:href="#m9f1f93244e" y="68.0558"/>
     <use style="fill:#988ed5;stroke:#ffffff;stroke-linejoin:miter;stroke-width:0.75;" x="768.96" xlink:href="#m9f1f93244e" y="67.890297"/>
     <use style="fill:#988ed5;stroke:#ffffff;stroke-linejoin:miter;stroke-width:0.75;" x="798.72" xlink:href="#m9f1f93244e" y="67.393738"/>
     <use style="fill:#988ed5;stroke:#ffffff;stroke-linejoin:miter;stroke-width:0.75;" x="828.48" xlink:href="#m9f1f93244e" y="67.360627"/>
     <use style="fill:#988ed5;stroke:#ffffff;stroke-linejoin:miter;stroke-width:0.75;" x="858.24" xlink:href="#m9f1f93244e" y="67.294431"/>
     <use style="fill:#988ed5;stroke:#ffffff;stroke-linejoin:miter;stroke-width:0.75;" x="888" xlink:href="#m9f1f93244e" y="67.327542"/>
     <use style="fill:#988ed5;stroke:#ffffff;stroke-linejoin:miter;stroke-width:0.75;" x="917.76" xlink:href="#m9f1f93244e" y="67.691684"/>
     <use style="fill:#988ed5;stroke:#ffffff;stroke-linejoin:miter;stroke-width:0.75;" x="947.52" xlink:href="#m9f1f93244e" y="66.93029"/>
     <use style="fill:#988ed5;stroke:#ffffff;stroke-linejoin:miter;stroke-width:0.75;" x="977.28" xlink:href="#m9f1f93244e" y="67.45996"/>
     <use style="fill:#988ed5;stroke:#ffffff;stroke-linejoin:miter;stroke-width:0.75;" x="1007.04" xlink:href="#m9f1f93244e" y="66.830983"/>
     <use style="fill:#988ed5;stroke:#ffffff;stroke-linejoin:miter;stroke-width:0.75;" x="1036.8" xlink:href="#m9f1f93244e" y="66.665455"/>
    </g>
   </g>
   <g id="line2d_28">
    <path clip-path="url(#pb64280a684)" d="M 173.76 353.905532 
L 203.52 184.514334 
L 233.28 99.735985 
L 263.04 90.566269 
L 292.8 83.415901 
L 322.56 78.880697 
L 352.32 76.828264 
L 382.08 75.106887 
L 411.84 73.385484 
L 441.6 71.895832 
L 471.36 71.333076 
L 501.12 70.505486 
L 530.88 70.174455 
L 560.64 69.975816 
L 590.4 68.784084 
L 620.16 69.247533 
L 649.92 68.850305 
L 679.68 68.55236 
L 709.44 68.221329 
L 739.2 67.923408 
L 768.96 68.188218 
L 798.72 67.890297 
L 828.48 67.724769 
L 858.24 67.790991 
L 888 67.426849 
L 917.76 67.45996 
L 947.52 67.22821 
L 977.28 67.327542 
L 1007.04 66.797872 
L 1036.8 66.93029 
" style="fill:none;stroke:#777777;stroke-dasharray:4.5,1.5,2.25,1.5;stroke-dashoffset:0;stroke-width:1.5;"/>
    <defs>
     <path d="M -1 3 
L 1 3 
L 1 1 
L 3 1 
L 3 -1 
L 1 -1 
L 1 -3 
L -1 -3 
L -1 -1 
L -3 -1 
L -3 1 
L -1 1 
z
" id="mc62f9c22d3" style="stroke:#ffffff;stroke-linejoin:miter;stroke-width:0.75;"/>
    </defs>
    <g clip-path="url(#pb64280a684)">
     <use style="fill:#777777;stroke:#ffffff;stroke-linejoin:miter;stroke-width:0.75;" x="173.76" xlink:href="#mc62f9c22d3" y="353.905532"/>
     <use style="fill:#777777;stroke:#ffffff;stroke-linejoin:miter;stroke-width:0.75;" x="203.52" xlink:href="#mc62f9c22d3" y="184.514334"/>
     <use style="fill:#777777;stroke:#ffffff;stroke-linejoin:miter;stroke-width:0.75;" x="233.28" xlink:href="#mc62f9c22d3" y="99.735985"/>
     <use style="fill:#777777;stroke:#ffffff;stroke-linejoin:miter;stroke-width:0.75;" x="263.04" xlink:href="#mc62f9c22d3" y="90.566269"/>
     <use style="fill:#777777;stroke:#ffffff;stroke-linejoin:miter;stroke-width:0.75;" x="292.8" xlink:href="#mc62f9c22d3" y="83.415901"/>
     <use style="fill:#777777;stroke:#ffffff;stroke-linejoin:miter;stroke-width:0.75;" x="322.56" xlink:href="#mc62f9c22d3" y="78.880697"/>
     <use style="fill:#777777;stroke:#ffffff;stroke-linejoin:miter;stroke-width:0.75;" x="352.32" xlink:href="#mc62f9c22d3" y="76.828264"/>
     <use style="fill:#777777;stroke:#ffffff;stroke-linejoin:miter;stroke-width:0.75;" x="382.08" xlink:href="#mc62f9c22d3" y="75.106887"/>
     <use style="fill:#777777;stroke:#ffffff;stroke-linejoin:miter;stroke-width:0.75;" x="411.84" xlink:href="#mc62f9c22d3" y="73.385484"/>
     <use style="fill:#777777;stroke:#ffffff;stroke-linejoin:miter;stroke-width:0.75;" x="441.6" xlink:href="#mc62f9c22d3" y="71.895832"/>
     <use style="fill:#777777;stroke:#ffffff;stroke-linejoin:miter;stroke-width:0.75;" x="471.36" xlink:href="#mc62f9c22d3" y="71.333076"/>
     <use style="fill:#777777;stroke:#ffffff;stroke-linejoin:miter;stroke-width:0.75;" x="501.12" xlink:href="#mc62f9c22d3" y="70.505486"/>
     <use style="fill:#777777;stroke:#ffffff;stroke-linejoin:miter;stroke-width:0.75;" x="530.88" xlink:href="#mc62f9c22d3" y="70.174455"/>
     <use style="fill:#777777;stroke:#ffffff;stroke-linejoin:miter;stroke-width:0.75;" x="560.64" xlink:href="#mc62f9c22d3" y="69.975816"/>
     <use style="fill:#777777;stroke:#ffffff;stroke-linejoin:miter;stroke-width:0.75;" x="590.4" xlink:href="#mc62f9c22d3" y="68.784084"/>
     <use style="fill:#777777;stroke:#ffffff;stroke-linejoin:miter;stroke-width:0.75;" x="620.16" xlink:href="#mc62f9c22d3" y="69.247533"/>
     <use style="fill:#777777;stroke:#ffffff;stroke-linejoin:miter;stroke-width:0.75;" x="649.92" xlink:href="#mc62f9c22d3" y="68.850305"/>
     <use style="fill:#777777;stroke:#ffffff;stroke-linejoin:miter;stroke-width:0.75;" x="679.68" xlink:href="#mc62f9c22d3" y="68.55236"/>
     <use style="fill:#777777;stroke:#ffffff;stroke-linejoin:miter;stroke-width:0.75;" x="709.44" xlink:href="#mc62f9c22d3" y="68.221329"/>
     <use style="fill:#777777;stroke:#ffffff;stroke-linejoin:miter;stroke-width:0.75;" x="739.2" xlink:href="#mc62f9c22d3" y="67.923408"/>
     <use style="fill:#777777;stroke:#ffffff;stroke-linejoin:miter;stroke-width:0.75;" x="768.96" xlink:href="#mc62f9c22d3" y="68.188218"/>
     <use style="fill:#777777;stroke:#ffffff;stroke-linejoin:miter;stroke-width:0.75;" x="798.72" xlink:href="#mc62f9c22d3" y="67.890297"/>
     <use style="fill:#777777;stroke:#ffffff;stroke-linejoin:miter;stroke-width:0.75;" x="828.48" xlink:href="#mc62f9c22d3" y="67.724769"/>
     <use style="fill:#777777;stroke:#ffffff;stroke-linejoin:miter;stroke-width:0.75;" x="858.24" xlink:href="#mc62f9c22d3" y="67.790991"/>
     <use style="fill:#777777;stroke:#ffffff;stroke-linejoin:miter;stroke-width:0.75;" x="888" xlink:href="#mc62f9c22d3" y="67.426849"/>
     <use style="fill:#777777;stroke:#ffffff;stroke-linejoin:miter;stroke-width:0.75;" x="917.76" xlink:href="#mc62f9c22d3" y="67.45996"/>
     <use style="fill:#777777;stroke:#ffffff;stroke-linejoin:miter;stroke-width:0.75;" x="947.52" xlink:href="#mc62f9c22d3" y="67.22821"/>
     <use style="fill:#777777;stroke:#ffffff;stroke-linejoin:miter;stroke-width:0.75;" x="977.28" xlink:href="#mc62f9c22d3" y="67.327542"/>
     <use style="fill:#777777;stroke:#ffffff;stroke-linejoin:miter;stroke-width:0.75;" x="1007.04" xlink:href="#mc62f9c22d3" y="66.797872"/>
     <use style="fill:#777777;stroke:#ffffff;stroke-linejoin:miter;stroke-width:0.75;" x="1036.8" xlink:href="#mc62f9c22d3" y="66.93029"/>
    </g>
   </g>
   <g id="line2d_29">
    <path clip-path="url(#pb64280a684)" d="M 173.76 358.73866 
L 203.52 359.698665 
L 233.28 348.509646 
L 263.04 176.205332 
L 292.8 143.896196 
L 322.56 134.892008 
L 352.32 123.074019 
L 382.08 121.253335 
L 411.84 117.843641 
L 441.6 114.26847 
L 471.36 111.222918 
L 501.12 109.998101 
L 530.88 106.290487 
L 560.64 103.509795 
L 590.4 102.682205 
L 620.16 100.166323 
L 649.92 98.113889 
L 679.68 98.378724 
L 709.44 97.253214 
L 739.2 96.491819 
L 768.96 96.326291 
L 798.72 95.035252 
L 828.48 95.399394 
L 858.24 94.770442 
L 888 94.141466 
L 917.76 93.777324 
L 947.52 93.280765 
L 977.28 92.618702 
L 1007.04 92.949733 
L 1036.8 91.824197 
" style="fill:none;stroke:#fbc15e;stroke-dasharray:7.5,1.5,1.5,1.5;stroke-dashoffset:0;stroke-width:1.5;"/>
    <defs>
     <path d="M 0 4.242641 
L 4.242641 0 
L 0 -4.242641 
L -4.242641 0 
z
" id="mdbcc16134e" style="stroke:#ffffff;stroke-linejoin:miter;stroke-width:0.75;"/>
    </defs>
    <g clip-path="url(#pb64280a684)">
     <use style="fill:#fbc15e;stroke:#ffffff;stroke-linejoin:miter;stroke-width:0.75;" x="173.76" xlink:href="#mdbcc16134e" y="358.73866"/>
     <use style="fill:#fbc15e;stroke:#ffffff;stroke-linejoin:miter;stroke-width:0.75;" x="203.52" xlink:href="#mdbcc16134e" y="359.698665"/>
     <use style="fill:#fbc15e;stroke:#ffffff;stroke-linejoin:miter;stroke-width:0.75;" x="233.28" xlink:href="#mdbcc16134e" y="348.509646"/>
     <use style="fill:#fbc15e;stroke:#ffffff;stroke-linejoin:miter;stroke-width:0.75;" x="263.04" xlink:href="#mdbcc16134e" y="176.205332"/>
     <use style="fill:#fbc15e;stroke:#ffffff;stroke-linejoin:miter;stroke-width:0.75;" x="292.8" xlink:href="#mdbcc16134e" y="143.896196"/>
     <use style="fill:#fbc15e;stroke:#ffffff;stroke-linejoin:miter;stroke-width:0.75;" x="322.56" xlink:href="#mdbcc16134e" y="134.892008"/>
     <use style="fill:#fbc15e;stroke:#ffffff;stroke-linejoin:miter;stroke-width:0.75;" x="352.32" xlink:href="#mdbcc16134e" y="123.074019"/>
     <use style="fill:#fbc15e;stroke:#ffffff;stroke-linejoin:miter;stroke-width:0.75;" x="382.08" xlink:href="#mdbcc16134e" y="121.253335"/>
     <use style="fill:#fbc15e;stroke:#ffffff;stroke-linejoin:miter;stroke-width:0.75;" x="411.84" xlink:href="#mdbcc16134e" y="117.843641"/>
     <use style="fill:#fbc15e;stroke:#ffffff;stroke-linejoin:miter;stroke-width:0.75;" x="441.6" xlink:href="#mdbcc16134e" y="114.26847"/>
     <use style="fill:#fbc15e;stroke:#ffffff;stroke-linejoin:miter;stroke-width:0.75;" x="471.36" xlink:href="#mdbcc16134e" y="111.222918"/>
     <use style="fill:#fbc15e;stroke:#ffffff;stroke-linejoin:miter;stroke-width:0.75;" x="501.12" xlink:href="#mdbcc16134e" y="109.998101"/>
     <use style="fill:#fbc15e;stroke:#ffffff;stroke-linejoin:miter;stroke-width:0.75;" x="530.88" xlink:href="#mdbcc16134e" y="106.290487"/>
     <use style="fill:#fbc15e;stroke:#ffffff;stroke-linejoin:miter;stroke-width:0.75;" x="560.64" xlink:href="#mdbcc16134e" y="103.509795"/>
     <use style="fill:#fbc15e;stroke:#ffffff;stroke-linejoin:miter;stroke-width:0.75;" x="590.4" xlink:href="#mdbcc16134e" y="102.682205"/>
     <use style="fill:#fbc15e;stroke:#ffffff;stroke-linejoin:miter;stroke-width:0.75;" x="620.16" xlink:href="#mdbcc16134e" y="100.166323"/>
     <use style="fill:#fbc15e;stroke:#ffffff;stroke-linejoin:miter;stroke-width:0.75;" x="649.92" xlink:href="#mdbcc16134e" y="98.113889"/>
     <use style="fill:#fbc15e;stroke:#ffffff;stroke-linejoin:miter;stroke-width:0.75;" x="679.68" xlink:href="#mdbcc16134e" y="98.378724"/>
     <use style="fill:#fbc15e;stroke:#ffffff;stroke-linejoin:miter;stroke-width:0.75;" x="709.44" xlink:href="#mdbcc16134e" y="97.253214"/>
     <use style="fill:#fbc15e;stroke:#ffffff;stroke-linejoin:miter;stroke-width:0.75;" x="739.2" xlink:href="#mdbcc16134e" y="96.491819"/>
     <use style="fill:#fbc15e;stroke:#ffffff;stroke-linejoin:miter;stroke-width:0.75;" x="768.96" xlink:href="#mdbcc16134e" y="96.326291"/>
     <use style="fill:#fbc15e;stroke:#ffffff;stroke-linejoin:miter;stroke-width:0.75;" x="798.72" xlink:href="#mdbcc16134e" y="95.035252"/>
     <use style="fill:#fbc15e;stroke:#ffffff;stroke-linejoin:miter;stroke-width:0.75;" x="828.48" xlink:href="#mdbcc16134e" y="95.399394"/>
     <use style="fill:#fbc15e;stroke:#ffffff;stroke-linejoin:miter;stroke-width:0.75;" x="858.24" xlink:href="#mdbcc16134e" y="94.770442"/>
     <use style="fill:#fbc15e;stroke:#ffffff;stroke-linejoin:miter;stroke-width:0.75;" x="888" xlink:href="#mdbcc16134e" y="94.141466"/>
     <use style="fill:#fbc15e;stroke:#ffffff;stroke-linejoin:miter;stroke-width:0.75;" x="917.76" xlink:href="#mdbcc16134e" y="93.777324"/>
     <use style="fill:#fbc15e;stroke:#ffffff;stroke-linejoin:miter;stroke-width:0.75;" x="947.52" xlink:href="#mdbcc16134e" y="93.280765"/>
     <use style="fill:#fbc15e;stroke:#ffffff;stroke-linejoin:miter;stroke-width:0.75;" x="977.28" xlink:href="#mdbcc16134e" y="92.618702"/>
     <use style="fill:#fbc15e;stroke:#ffffff;stroke-linejoin:miter;stroke-width:0.75;" x="1007.04" xlink:href="#mdbcc16134e" y="92.949733"/>
     <use style="fill:#fbc15e;stroke:#ffffff;stroke-linejoin:miter;stroke-width:0.75;" x="1036.8" xlink:href="#mdbcc16134e" y="91.824197"/>
    </g>
   </g>
   <g id="line2d_30">
    <path clip-path="url(#pb64280a684)" d="M 173.76 355.428299 
L 203.52 355.428299 
L 233.28 355.428299 
L 263.04 355.428299 
L 292.8 269.292696 
L 322.56 227.880065 
L 352.32 189.28125 
L 382.08 176.900505 
L 411.84 144.326534 
L 441.6 167.300451 
L 471.36 152.006572 
L 501.12 144.525173 
L 530.88 136.414772 
L 560.64 124.960924 
L 590.4 133.402356 
L 620.16 120.723665 
L 649.92 124.365058 
L 679.68 137.242362 
L 709.44 121.78298 
L 739.2 109.832572 
L 768.96 108.078085 
L 798.72 108.078085 
L 828.48 132.442348 
L 858.24 116.155375 
L 888 106.323597 
L 917.76 119.333319 
L 947.52 114.26847 
L 977.28 105.992566 
L 1007.04 122.974712 
L 1036.8 131.945789 
L 1066.56 104.635306 
L 1096.32 106.158069 
L 1126.08 170.246671 
L 1153 211.210795 
" style="fill:none;stroke:#8eba42;stroke-dasharray:7.5,1.5,3,1.5,3,1.5;stroke-dashoffset:0;stroke-width:1.5;"/>
    <defs>
     <path d="M 0 -3 
L -3 3 
L 3 3 
z
" id="m799c6d49ab" style="stroke:#ffffff;stroke-linejoin:miter;stroke-width:0.75;"/>
    </defs>
    <g clip-path="url(#pb64280a684)">
     <use style="fill:#8eba42;stroke:#ffffff;stroke-linejoin:miter;stroke-width:0.75;" x="173.76" xlink:href="#m799c6d49ab" y="355.428299"/>
     <use style="fill:#8eba42;stroke:#ffffff;stroke-linejoin:miter;stroke-width:0.75;" x="203.52" xlink:href="#m799c6d49ab" y="355.428299"/>
     <use style="fill:#8eba42;stroke:#ffffff;stroke-linejoin:miter;stroke-width:0.75;" x="233.28" xlink:href="#m799c6d49ab" y="355.428299"/>
     <use style="fill:#8eba42;stroke:#ffffff;stroke-linejoin:miter;stroke-width:0.75;" x="263.04" xlink:href="#m799c6d49ab" y="355.428299"/>
     <use style="fill:#8eba42;stroke:#ffffff;stroke-linejoin:miter;stroke-width:0.75;" x="292.8" xlink:href="#m799c6d49ab" y="269.292696"/>
     <use style="fill:#8eba42;stroke:#ffffff;stroke-linejoin:miter;stroke-width:0.75;" x="322.56" xlink:href="#m799c6d49ab" y="227.880065"/>
     <use style="fill:#8eba42;stroke:#ffffff;stroke-linejoin:miter;stroke-width:0.75;" x="352.32" xlink:href="#m799c6d49ab" y="189.28125"/>
     <use style="fill:#8eba42;stroke:#ffffff;stroke-linejoin:miter;stroke-width:0.75;" x="382.08" xlink:href="#m799c6d49ab" y="176.900505"/>
     <use style="fill:#8eba42;stroke:#ffffff;stroke-linejoin:miter;stroke-width:0.75;" x="411.84" xlink:href="#m799c6d49ab" y="144.326534"/>
     <use style="fill:#8eba42;stroke:#ffffff;stroke-linejoin:miter;stroke-width:0.75;" x="441.6" xlink:href="#m799c6d49ab" y="167.300451"/>
     <use style="fill:#8eba42;stroke:#ffffff;stroke-linejoin:miter;stroke-width:0.75;" x="471.36" xlink:href="#m799c6d49ab" y="152.006572"/>
     <use style="fill:#8eba42;stroke:#ffffff;stroke-linejoin:miter;stroke-width:0.75;" x="501.12" xlink:href="#m799c6d49ab" y="144.525173"/>
     <use style="fill:#8eba42;stroke:#ffffff;stroke-linejoin:miter;stroke-width:0.75;" x="530.88" xlink:href="#m799c6d49ab" y="136.414772"/>
     <use style="fill:#8eba42;stroke:#ffffff;stroke-linejoin:miter;stroke-width:0.75;" x="560.64" xlink:href="#m799c6d49ab" y="124.960924"/>
     <use style="fill:#8eba42;stroke:#ffffff;stroke-linejoin:miter;stroke-width:0.75;" x="590.4" xlink:href="#m799c6d49ab" y="133.402356"/>
     <use style="fill:#8eba42;stroke:#ffffff;stroke-linejoin:miter;stroke-width:0.75;" x="620.16" xlink:href="#m799c6d49ab" y="120.723665"/>
     <use style="fill:#8eba42;stroke:#ffffff;stroke-linejoin:miter;stroke-width:0.75;" x="649.92" xlink:href="#m799c6d49ab" y="124.365058"/>
     <use style="fill:#8eba42;stroke:#ffffff;stroke-linejoin:miter;stroke-width:0.75;" x="679.68" xlink:href="#m799c6d49ab" y="137.242362"/>
     <use style="fill:#8eba42;stroke:#ffffff;stroke-linejoin:miter;stroke-width:0.75;" x="709.44" xlink:href="#m799c6d49ab" y="121.78298"/>
     <use style="fill:#8eba42;stroke:#ffffff;stroke-linejoin:miter;stroke-width:0.75;" x="739.2" xlink:href="#m799c6d49ab" y="109.832572"/>
     <use style="fill:#8eba42;stroke:#ffffff;stroke-linejoin:miter;stroke-width:0.75;" x="768.96" xlink:href="#m799c6d49ab" y="108.078085"/>
     <use style="fill:#8eba42;stroke:#ffffff;stroke-linejoin:miter;stroke-width:0.75;" x="798.72" xlink:href="#m799c6d49ab" y="108.078085"/>
     <use style="fill:#8eba42;stroke:#ffffff;stroke-linejoin:miter;stroke-width:0.75;" x="828.48" xlink:href="#m799c6d49ab" y="132.442348"/>
     <use style="fill:#8eba42;stroke:#ffffff;stroke-linejoin:miter;stroke-width:0.75;" x="858.24" xlink:href="#m799c6d49ab" y="116.155375"/>
     <use style="fill:#8eba42;stroke:#ffffff;stroke-linejoin:miter;stroke-width:0.75;" x="888" xlink:href="#m799c6d49ab" y="106.323597"/>
     <use style="fill:#8eba42;stroke:#ffffff;stroke-linejoin:miter;stroke-width:0.75;" x="917.76" xlink:href="#m799c6d49ab" y="119.333319"/>
     <use style="fill:#8eba42;stroke:#ffffff;stroke-linejoin:miter;stroke-width:0.75;" x="947.52" xlink:href="#m799c6d49ab" y="114.26847"/>
     <use style="fill:#8eba42;stroke:#ffffff;stroke-linejoin:miter;stroke-width:0.75;" x="977.28" xlink:href="#m799c6d49ab" y="105.992566"/>
     <use style="fill:#8eba42;stroke:#ffffff;stroke-linejoin:miter;stroke-width:0.75;" x="1007.04" xlink:href="#m799c6d49ab" y="122.974712"/>
     <use style="fill:#8eba42;stroke:#ffffff;stroke-linejoin:miter;stroke-width:0.75;" x="1036.8" xlink:href="#m799c6d49ab" y="131.945789"/>
     <use style="fill:#8eba42;stroke:#ffffff;stroke-linejoin:miter;stroke-width:0.75;" x="1066.56" xlink:href="#m799c6d49ab" y="104.635306"/>
     <use style="fill:#8eba42;stroke:#ffffff;stroke-linejoin:miter;stroke-width:0.75;" x="1096.32" xlink:href="#m799c6d49ab" y="106.158069"/>
     <use style="fill:#8eba42;stroke:#ffffff;stroke-linejoin:miter;stroke-width:0.75;" x="1126.08" xlink:href="#m799c6d49ab" y="170.246671"/>
     <use style="fill:#8eba42;stroke:#ffffff;stroke-linejoin:miter;stroke-width:0.75;" x="1155.84" xlink:href="#m799c6d49ab" y="215.532418"/>
     <use style="fill:#8eba42;stroke:#ffffff;stroke-linejoin:miter;stroke-width:0.75;" x="1185.6" xlink:href="#m799c6d49ab" y="187.162621"/>
     <use style="fill:#8eba42;stroke:#ffffff;stroke-linejoin:miter;stroke-width:0.75;" x="1215.36" xlink:href="#m799c6d49ab" y="161.805264"/>
     <use style="fill:#8eba42;stroke:#ffffff;stroke-linejoin:miter;stroke-width:0.75;" x="1245.12" xlink:href="#m799c6d49ab" y="163.228695"/>
     <use style="fill:#8eba42;stroke:#ffffff;stroke-linejoin:miter;stroke-width:0.75;" x="1274.88" xlink:href="#m799c6d49ab" y="146.908637"/>
     <use style="fill:#8eba42;stroke:#ffffff;stroke-linejoin:miter;stroke-width:0.75;" x="1304.64" xlink:href="#m799c6d49ab" y="200.933724"/>
     <use style="fill:#8eba42;stroke:#ffffff;stroke-linejoin:miter;stroke-width:0.75;" x="1334.4" xlink:href="#m799c6d49ab" y="197.557154"/>
     <use style="fill:#8eba42;stroke:#ffffff;stroke-linejoin:miter;stroke-width:0.75;" x="1364.16" xlink:href="#m799c6d49ab" y="206.329617"/>
     <use style="fill:#8eba42;stroke:#ffffff;stroke-linejoin:miter;stroke-width:0.75;" x="1393.92" xlink:href="#m799c6d49ab" y="154.489343"/>
     <use style="fill:#8eba42;stroke:#ffffff;stroke-linejoin:miter;stroke-width:0.75;" x="1423.68" xlink:href="#m799c6d49ab" y="213.413789"/>
     <use style="fill:#8eba42;stroke:#ffffff;stroke-linejoin:miter;stroke-width:0.75;" x="1453.44" xlink:href="#m799c6d49ab" y="173.39153"/>
     <use style="fill:#8eba42;stroke:#ffffff;stroke-linejoin:miter;stroke-width:0.75;" x="1483.2" xlink:href="#m799c6d49ab" y="159.090743"/>
     <use style="fill:#8eba42;stroke:#ffffff;stroke-linejoin:miter;stroke-width:0.75;" x="1512.96" xlink:href="#m799c6d49ab" y="178.125322"/>
     <use style="fill:#8eba42;stroke:#ffffff;stroke-linejoin:miter;stroke-width:0.75;" x="1542.72" xlink:href="#m799c6d49ab" y="235.162863"/>
     <use style="fill:#8eba42;stroke:#ffffff;stroke-linejoin:miter;stroke-width:0.75;" x="1572.48" xlink:href="#m799c6d49ab" y="204.806854"/>
     <use style="fill:#8eba42;stroke:#ffffff;stroke-linejoin:miter;stroke-width:0.75;" x="1602.24" xlink:href="#m799c6d49ab" y="156.409359"/>
    </g>
   </g>
   <g id="line2d_31"/>
   <g id="line2d_32"/>
   <g id="line2d_33"/>
   <g id="line2d_34"/>
   <g id="line2d_35"/>
   <g id="line2d_36"/>
   <g id="line2d_37"/>
   <g id="patch_3">
    <path d="M 144 378 
L 144 51.84 
" style="fill:none;stroke:#ffffff;stroke-linecap:square;stroke-linejoin:miter;"/>
   </g>
   <g id="patch_4">
    <path d="M 1036.8 378 
L 1036.8 51.84 
" style="fill:none;stroke:#ffffff;stroke-linecap:square;stroke-linejoin:miter;"/>
   </g>
   <g id="patch_5">
    <path d="M 144 378 
L 1036.8 378 
" style="fill:none;stroke:#ffffff;stroke-linecap:square;stroke-linejoin:miter;"/>
   </g>
   <g id="patch_6">
    <path d="M 144 51.84 
L 1036.8 51.84 
" style="fill:none;stroke:#ffffff;stroke-linecap:square;stroke-linejoin:miter;"/>
   </g>
   <g id="legend_1">
    <g id="patch_7">
     <path d="M 902.673437 373 
L 1029.8 373 
Q 1031.8 373 1031.8 371 
L 1031.8 267.584375 
Q 1031.8 265.584375 1029.8 265.584375 
L 902.673437 265.584375 
Q 900.673437 265.584375 900.673437 267.584375 
L 900.673437 371 
Q 900.673437 373 902.673437 373 
z
" style="fill:#e5e5e5;opacity:0.8;stroke:#cccccc;stroke-linejoin:miter;stroke-width:0.5;"/>
    </g>
    <g id="line2d_38">
     <path d="M 904.673437 273.682813 
L 924.673437 273.682813 
" style="fill:none;"/>
    </g>
    <g id="line2d_39"/>
    <g id="text_15">
     <!-- Name -->
     <defs>
      <path d="M 9.8125 72.90625 
L 23.09375 72.90625 
L 55.421875 11.921875 
L 55.421875 72.90625 
L 64.984375 72.90625 
L 64.984375 0 
L 51.703125 0 
L 19.390625 60.984375 
L 19.390625 0 
L 9.8125 0 
z
" id="DejaVuSans-78"/>
      <path d="M 52 44.1875 
Q 55.375 50.25 60.0625 53.125 
Q 64.75 56 71.09375 56 
Q 79.640625 56 84.28125 50.015625 
Q 88.921875 44.046875 88.921875 33.015625 
L 88.921875 0 
L 79.890625 0 
L 79.890625 32.71875 
Q 79.890625 40.578125 77.09375 44.375 
Q 74.3125 48.1875 68.609375 48.1875 
Q 61.625 48.1875 57.5625 43.546875 
Q 53.515625 38.921875 53.515625 30.90625 
L 53.515625 0 
L 44.484375 0 
L 44.484375 32.71875 
Q 44.484375 40.625 41.703125 44.40625 
Q 38.921875 48.1875 33.109375 48.1875 
Q 26.21875 48.1875 22.15625 43.53125 
Q 18.109375 38.875 18.109375 30.90625 
L 18.109375 0 
L 9.078125 0 
L 9.078125 54.6875 
L 18.109375 54.6875 
L 18.109375 46.1875 
Q 21.1875 51.21875 25.484375 53.609375 
Q 29.78125 56 35.6875 56 
Q 41.65625 56 45.828125 52.96875 
Q 50 49.953125 52 44.1875 
z
" id="DejaVuSans-109"/>
     </defs>
     <g transform="translate(932.673437 277.182813)scale(0.1 -0.1)">
      <use xlink:href="#DejaVuSans-78"/>
      <use x="74.804688" xlink:href="#DejaVuSans-97"/>
      <use x="136.083984" xlink:href="#DejaVuSans-109"/>
      <use x="233.496094" xlink:href="#DejaVuSans-101"/>
     </g>
    </g>
    <g id="line2d_40">
     <path d="M 904.673437 288.360937 
L 924.673437 288.360937 
" style="fill:none;stroke:#e24a33;stroke-linecap:square;stroke-width:1.5;"/>
    </g>
    <g id="line2d_41">
     <defs>
      <path d="M 0 3 
C 0.795609 3 1.55874 2.683901 2.12132 2.12132 
C 2.683901 1.55874 3 0.795609 3 0 
C 3 -0.795609 2.683901 -1.55874 2.12132 -2.12132 
C 1.55874 -2.683901 0.795609 -3 0 -3 
C -0.795609 -3 -1.55874 -2.683901 -2.12132 -2.12132 
C -2.683901 -1.55874 -3 -0.795609 -3 0 
C -3 0.795609 -2.683901 1.55874 -2.12132 2.12132 
C -1.55874 2.683901 -0.795609 3 0 3 
z
" id="m00ea369ccb" style="stroke:#e24a33;"/>
     </defs>
     <g>
      <use style="fill:#e24a33;stroke:#e24a33;" x="914.673437" xlink:href="#m00ea369ccb" y="288.360937"/>
     </g>
    </g>
    <g id="text_16">
     <!-- FA_LeNet -->
     <defs>
      <path d="M 9.8125 72.90625 
L 51.703125 72.90625 
L 51.703125 64.59375 
L 19.671875 64.59375 
L 19.671875 43.109375 
L 48.578125 43.109375 
L 48.578125 34.8125 
L 19.671875 34.8125 
L 19.671875 0 
L 9.8125 0 
z
" id="DejaVuSans-70"/>
      <path d="M 50.984375 -16.609375 
L 50.984375 -23.578125 
L -0.984375 -23.578125 
L -0.984375 -16.609375 
z
" id="DejaVuSans-95"/>
      <path d="M 9.8125 72.90625 
L 19.671875 72.90625 
L 19.671875 8.296875 
L 55.171875 8.296875 
L 55.171875 0 
L 9.8125 0 
z
" id="DejaVuSans-76"/>
     </defs>
     <g transform="translate(932.673437 291.860937)scale(0.1 -0.1)">
      <use xlink:href="#DejaVuSans-70"/>
      <use x="57.378906" xlink:href="#DejaVuSans-65"/>
      <use x="125.787109" xlink:href="#DejaVuSans-95"/>
      <use x="175.787109" xlink:href="#DejaVuSans-76"/>
      <use x="231.484375" xlink:href="#DejaVuSans-101"/>
      <use x="293.007812" xlink:href="#DejaVuSans-78"/>
      <use x="367.8125" xlink:href="#DejaVuSans-101"/>
      <use x="429.335938" xlink:href="#DejaVuSans-116"/>
     </g>
    </g>
    <g id="line2d_42">
     <path d="M 904.673437 303.317188 
L 924.673437 303.317188 
" style="fill:none;stroke:#348abd;stroke-dasharray:6,2.25;stroke-dashoffset:0;stroke-width:1.5;"/>
    </g>
    <g id="line2d_43">
     <defs>
      <path d="M -1.5 3 
L 0 1.5 
L 1.5 3 
L 3 1.5 
L 1.5 0 
L 3 -1.5 
L 1.5 -3 
L 0 -1.5 
L -1.5 -3 
L -3 -1.5 
L -1.5 0 
L -3 1.5 
z
" id="ma4fea58e0c" style="stroke:#348abd;stroke-linejoin:miter;"/>
     </defs>
     <g>
      <use style="fill:#348abd;stroke:#348abd;stroke-linejoin:miter;" x="914.673437" xlink:href="#ma4fea58e0c" y="303.317188"/>
     </g>
    </g>
    <g id="text_17">
     <!-- DFA_LeNet -->
     <defs>
      <path d="M 19.671875 64.796875 
L 19.671875 8.109375 
L 31.59375 8.109375 
Q 46.6875 8.109375 53.6875 14.9375 
Q 60.6875 21.78125 60.6875 36.53125 
Q 60.6875 51.171875 53.6875 57.984375 
Q 46.6875 64.796875 31.59375 64.796875 
z
M 9.8125 72.90625 
L 30.078125 72.90625 
Q 51.265625 72.90625 61.171875 64.09375 
Q 71.09375 55.28125 71.09375 36.53125 
Q 71.09375 17.671875 61.125 8.828125 
Q 51.171875 0 30.078125 0 
L 9.8125 0 
z
" id="DejaVuSans-68"/>
     </defs>
     <g transform="translate(932.673437 306.817188)scale(0.1 -0.1)">
      <use xlink:href="#DejaVuSans-68"/>
      <use x="77.001953" xlink:href="#DejaVuSans-70"/>
      <use x="134.380859" xlink:href="#DejaVuSans-65"/>
      <use x="202.789062" xlink:href="#DejaVuSans-95"/>
      <use x="252.789062" xlink:href="#DejaVuSans-76"/>
      <use x="308.486328" xlink:href="#DejaVuSans-101"/>
      <use x="370.009766" xlink:href="#DejaVuSans-78"/>
      <use x="444.814453" xlink:href="#DejaVuSans-101"/>
      <use x="506.337891" xlink:href="#DejaVuSans-116"/>
     </g>
    </g>
    <g id="line2d_44">
     <path d="M 904.673437 318.273438 
L 924.673437 318.273438 
" style="fill:none;stroke:#988ed5;stroke-dasharray:1.5,1.5;stroke-dashoffset:0;stroke-width:1.5;"/>
    </g>
    <g id="line2d_45">
     <defs>
      <path d="M -3 3 
L 3 3 
L 3 -3 
L -3 -3 
z
" id="m4e16ff8759" style="stroke:#988ed5;stroke-linejoin:miter;"/>
     </defs>
     <g>
      <use style="fill:#988ed5;stroke:#988ed5;stroke-linejoin:miter;" x="914.673437" xlink:href="#m4e16ff8759" y="318.273438"/>
     </g>
    </g>
    <g id="text_18">
     <!-- BP_LeNet -->
     <defs>
      <path d="M 19.671875 34.8125 
L 19.671875 8.109375 
L 35.5 8.109375 
Q 43.453125 8.109375 47.28125 11.40625 
Q 51.125 14.703125 51.125 21.484375 
Q 51.125 28.328125 47.28125 31.5625 
Q 43.453125 34.8125 35.5 34.8125 
z
M 19.671875 64.796875 
L 19.671875 42.828125 
L 34.28125 42.828125 
Q 41.5 42.828125 45.03125 45.53125 
Q 48.578125 48.25 48.578125 53.8125 
Q 48.578125 59.328125 45.03125 62.0625 
Q 41.5 64.796875 34.28125 64.796875 
z
M 9.8125 72.90625 
L 35.015625 72.90625 
Q 46.296875 72.90625 52.390625 68.21875 
Q 58.5 63.53125 58.5 54.890625 
Q 58.5 48.1875 55.375 44.234375 
Q 52.25 40.28125 46.1875 39.3125 
Q 53.46875 37.75 57.5 32.78125 
Q 61.53125 27.828125 61.53125 20.40625 
Q 61.53125 10.640625 54.890625 5.3125 
Q 48.25 0 35.984375 0 
L 9.8125 0 
z
" id="DejaVuSans-66"/>
      <path d="M 19.671875 64.796875 
L 19.671875 37.40625 
L 32.078125 37.40625 
Q 38.96875 37.40625 42.71875 40.96875 
Q 46.484375 44.53125 46.484375 51.125 
Q 46.484375 57.671875 42.71875 61.234375 
Q 38.96875 64.796875 32.078125 64.796875 
z
M 9.8125 72.90625 
L 32.078125 72.90625 
Q 44.34375 72.90625 50.609375 67.359375 
Q 56.890625 61.8125 56.890625 51.125 
Q 56.890625 40.328125 50.609375 34.8125 
Q 44.34375 29.296875 32.078125 29.296875 
L 19.671875 29.296875 
L 19.671875 0 
L 9.8125 0 
z
" id="DejaVuSans-80"/>
     </defs>
     <g transform="translate(932.673437 321.773438)scale(0.1 -0.1)">
      <use xlink:href="#DejaVuSans-66"/>
      <use x="68.603516" xlink:href="#DejaVuSans-80"/>
      <use x="128.90625" xlink:href="#DejaVuSans-95"/>
      <use x="178.90625" xlink:href="#DejaVuSans-76"/>
      <use x="234.603516" xlink:href="#DejaVuSans-101"/>
      <use x="296.126953" xlink:href="#DejaVuSans-78"/>
      <use x="370.931641" xlink:href="#DejaVuSans-101"/>
      <use x="432.455078" xlink:href="#DejaVuSans-116"/>
     </g>
    </g>
    <g id="line2d_46">
     <path d="M 904.673437 333.229688 
L 924.673437 333.229688 
" style="fill:none;stroke:#777777;stroke-dasharray:4.5,1.5,2.25,1.5;stroke-dashoffset:0;stroke-width:1.5;"/>
    </g>
    <g id="line2d_47">
     <defs>
      <path d="M -1 3 
L 1 3 
L 1 1 
L 3 1 
L 3 -1 
L 1 -1 
L 1 -3 
L -1 -3 
L -1 -1 
L -3 -1 
L -3 1 
L -1 1 
z
" id="m5d27899ac1" style="stroke:#777777;stroke-linejoin:miter;"/>
     </defs>
     <g>
      <use style="fill:#777777;stroke:#777777;stroke-linejoin:miter;" x="914.673437" xlink:href="#m5d27899ac1" y="333.229688"/>
     </g>
    </g>
    <g id="text_19">
     <!-- BP_LeNet-Quant4 -->
     <defs>
      <path d="M 4.890625 31.390625 
L 31.203125 31.390625 
L 31.203125 23.390625 
L 4.890625 23.390625 
z
" id="DejaVuSans-45"/>
      <path d="M 39.40625 66.21875 
Q 28.65625 66.21875 22.328125 58.203125 
Q 16.015625 50.203125 16.015625 36.375 
Q 16.015625 22.609375 22.328125 14.59375 
Q 28.65625 6.59375 39.40625 6.59375 
Q 50.140625 6.59375 56.421875 14.59375 
Q 62.703125 22.609375 62.703125 36.375 
Q 62.703125 50.203125 56.421875 58.203125 
Q 50.140625 66.21875 39.40625 66.21875 
z
M 53.21875 1.3125 
L 66.21875 -12.890625 
L 54.296875 -12.890625 
L 43.5 -1.21875 
Q 41.890625 -1.3125 41.03125 -1.359375 
Q 40.1875 -1.421875 39.40625 -1.421875 
Q 24.03125 -1.421875 14.8125 8.859375 
Q 5.609375 19.140625 5.609375 36.375 
Q 5.609375 53.65625 14.8125 63.9375 
Q 24.03125 74.21875 39.40625 74.21875 
Q 54.734375 74.21875 63.90625 63.9375 
Q 73.09375 53.65625 73.09375 36.375 
Q 73.09375 23.6875 67.984375 14.640625 
Q 62.890625 5.609375 53.21875 1.3125 
z
" id="DejaVuSans-81"/>
      <path d="M 54.890625 33.015625 
L 54.890625 0 
L 45.90625 0 
L 45.90625 32.71875 
Q 45.90625 40.484375 42.875 44.328125 
Q 39.84375 48.1875 33.796875 48.1875 
Q 26.515625 48.1875 22.3125 43.546875 
Q 18.109375 38.921875 18.109375 30.90625 
L 18.109375 0 
L 9.078125 0 
L 9.078125 54.6875 
L 18.109375 54.6875 
L 18.109375 46.1875 
Q 21.34375 51.125 25.703125 53.5625 
Q 30.078125 56 35.796875 56 
Q 45.21875 56 50.046875 50.171875 
Q 54.890625 44.34375 54.890625 33.015625 
z
" id="DejaVuSans-110"/>
     </defs>
     <g transform="translate(932.673437 336.729688)scale(0.1 -0.1)">
      <use xlink:href="#DejaVuSans-66"/>
      <use x="68.603516" xlink:href="#DejaVuSans-80"/>
      <use x="128.90625" xlink:href="#DejaVuSans-95"/>
      <use x="178.90625" xlink:href="#DejaVuSans-76"/>
      <use x="234.603516" xlink:href="#DejaVuSans-101"/>
      <use x="296.126953" xlink:href="#DejaVuSans-78"/>
      <use x="370.931641" xlink:href="#DejaVuSans-101"/>
      <use x="432.455078" xlink:href="#DejaVuSans-116"/>
      <use x="471.664062" xlink:href="#DejaVuSans-45"/>
      <use x="507.794922" xlink:href="#DejaVuSans-81"/>
      <use x="586.505859" xlink:href="#DejaVuSans-117"/>
      <use x="649.884766" xlink:href="#DejaVuSans-97"/>
      <use x="711.164062" xlink:href="#DejaVuSans-110"/>
      <use x="774.542969" xlink:href="#DejaVuSans-116"/>
      <use x="813.751953" xlink:href="#DejaVuSans-52"/>
     </g>
    </g>
    <g id="line2d_48">
     <path d="M 904.673437 348.185938 
L 924.673437 348.185938 
" style="fill:none;stroke:#fbc15e;stroke-dasharray:7.5,1.5,1.5,1.5;stroke-dashoffset:0;stroke-width:1.5;"/>
    </g>
    <g id="line2d_49">
     <defs>
      <path d="M 0 4.242641 
L 4.242641 0 
L 0 -4.242641 
L -4.242641 0 
z
" id="ma184b5ce56" style="stroke:#fbc15e;stroke-linejoin:miter;"/>
     </defs>
     <g>
      <use style="fill:#fbc15e;stroke:#fbc15e;stroke-linejoin:miter;" x="914.673437" xlink:href="#ma184b5ce56" y="348.185938"/>
     </g>
    </g>
    <g id="text_20">
     <!-- FA_LeNet-Quant4 -->
     <g transform="translate(932.673437 351.685938)scale(0.1 -0.1)">
      <use xlink:href="#DejaVuSans-70"/>
      <use x="57.378906" xlink:href="#DejaVuSans-65"/>
      <use x="125.787109" xlink:href="#DejaVuSans-95"/>
      <use x="175.787109" xlink:href="#DejaVuSans-76"/>
      <use x="231.484375" xlink:href="#DejaVuSans-101"/>
      <use x="293.007812" xlink:href="#DejaVuSans-78"/>
      <use x="367.8125" xlink:href="#DejaVuSans-101"/>
      <use x="429.335938" xlink:href="#DejaVuSans-116"/>
      <use x="468.544922" xlink:href="#DejaVuSans-45"/>
      <use x="504.675781" xlink:href="#DejaVuSans-81"/>
      <use x="583.386719" xlink:href="#DejaVuSans-117"/>
      <use x="646.765625" xlink:href="#DejaVuSans-97"/>
      <use x="708.044922" xlink:href="#DejaVuSans-110"/>
      <use x="771.423828" xlink:href="#DejaVuSans-116"/>
      <use x="810.632812" xlink:href="#DejaVuSans-52"/>
     </g>
    </g>
    <g id="line2d_50">
     <path d="M 904.673437 363.142187 
L 924.673437 363.142187 
" style="fill:none;stroke:#8eba42;stroke-dasharray:7.5,1.5,3,1.5,3,1.5;stroke-dashoffset:0;stroke-width:1.5;"/>
    </g>
    <g id="line2d_51">
     <defs>
      <path d="M 0 -3 
L -3 3 
L 3 3 
z
" id="mec87a7e106" style="stroke:#8eba42;stroke-linejoin:miter;"/>
     </defs>
     <g>
      <use style="fill:#8eba42;stroke:#8eba42;stroke-linejoin:miter;" x="914.673437" xlink:href="#mec87a7e106" y="363.142187"/>
     </g>
    </g>
    <g id="text_21">
     <!-- DFA_LeNet-Quant4 -->
     <g transform="translate(932.673437 366.642187)scale(0.1 -0.1)">
      <use xlink:href="#DejaVuSans-68"/>
      <use x="77.001953" xlink:href="#DejaVuSans-70"/>
      <use x="134.380859" xlink:href="#DejaVuSans-65"/>
      <use x="202.789062" xlink:href="#DejaVuSans-95"/>
      <use x="252.789062" xlink:href="#DejaVuSans-76"/>
      <use x="308.486328" xlink:href="#DejaVuSans-101"/>
      <use x="370.009766" xlink:href="#DejaVuSans-78"/>
      <use x="444.814453" xlink:href="#DejaVuSans-101"/>
      <use x="506.337891" xlink:href="#DejaVuSans-116"/>
      <use x="545.546875" xlink:href="#DejaVuSans-45"/>
      <use x="581.677734" xlink:href="#DejaVuSans-81"/>
      <use x="660.388672" xlink:href="#DejaVuSans-117"/>
      <use x="723.767578" xlink:href="#DejaVuSans-97"/>
      <use x="785.046875" xlink:href="#DejaVuSans-110"/>
      <use x="848.425781" xlink:href="#DejaVuSans-116"/>
      <use x="887.634766" xlink:href="#DejaVuSans-52"/>
     </g>
    </g>
   </g>
  </g>
 </g>
 <defs>
  <clipPath id="pb64280a684">
   <rect height="326.16" width="892.8" x="144" y="51.84"/>
  </clipPath>
 </defs>
</svg>
